<mxfile host="Electron" modified="2024-03-14T17:54:28.406Z" agent="Mozilla/5.0 (Windows NT 10.0; Win64; x64) AppleWebKit/537.36 (KHTML, like Gecko) draw.io/23.1.5 Chrome/120.0.6099.109 Electron/28.1.0 Safari/537.36" etag="NsvNBaHClzDsB3xTuCAT" version="23.1.5" type="device">
  <diagram name="PÃ¡gina-1" id="XpXUzrEFEvgvmMstNagA">
    <mxGraphModel dx="2390" dy="1407" grid="1" gridSize="10" guides="1" tooltips="1" connect="1" arrows="1" fold="1" page="1" pageScale="1" pageWidth="827" pageHeight="1169" math="1" shadow="0">
      <root>
        <mxCell id="0" />
        <mxCell id="1" parent="0" />
        <mxCell id="p6Mk2MRf3MZ13ze-RwmF-2" value="" style="shape=image;verticalLabelPosition=bottom;labelBackgroundColor=default;verticalAlign=top;aspect=fixed;imageAspect=0;image=data:image/png,iVBORw0KGgoAAAANSUhEUgAADhAAAAMJCAYAAABYtJ2pAAAAOXRFWHRTb2Z0d2FyZQBNYXRwbG90bGliIHZlcnNpb24zLjguMywgaHR0cHM6Ly9tYXRwbG90bGliLm9yZy/H5lhTAAAACXBIWXMAAD2EAAA9hAHVrK90AADTrElEQVR4nOzdeZiU1Zko8Ld3aHYERUVFicZ9AcVAVNwSNaNxSWJGjaAT4xJnzHLNdhMjZuaZyYyJE7M744hyXRKT0ZCoIW6BqDRuKIKRoKyCoMgiNN30fv9o6O6iqptu6KXq69/veXySPqfO+d5zvqq3TxW8VF5DQ0NDAAAAAAAAAAAAAAAAAACJkt/TAQAAAAAAAAAAAAAAAAAAnU8BIQAAAAAAAAAAAAAAAAAkkAJCAAAAAAAAAAAAAAAAAEggBYQAAAAAAAAAAAAAAAAAkEAKCAEAAAAAAAAAAAAAAAAggRQQAgAAAAAAAAAAAAAAAEACKSAEAAAAAAAAAAAAAAAAgARSQAgAAAAAAAAAAAAAAAAACaSAEAAAAAAAAAAAAAAAAAASSAEhAAAAAAAAAAAAAAAAACSQAkIAAAAAAAAAAAAAAAAASCAFhAAAAAAAAAAAAAAAAACQQAoIAQAAAAAAAAAAAAAAACCBFBACAAAAAAAAAAAAAAAAQAIpIAQAAAAAAAAAAAAAAACABFJACAAAAAAAAAAAAAAAAAAJpIAQAAAAAAAAAAAAAAAAABJIASEAAAAAAAAAAAAAAAAAJJACQgAAAAAAAAAAAAAAAABIIAWEAAAAAAAAAAAAAAAAAJBACggBAAAAAAAAAAAAAAAAIIEUEAIAAAAAAAAAAAAAAABAAikgBAAAAAAAAAAAAAAAAIAEUkAIAAAAAAAAAAAAAAAAAAmkgBAAAAAAAAAAAAAAAAAAEkgBIQAAAAAAAAAAAAAAAAAkkAJCAAAAAAAAAAAAAAAAAEggBYQAAAAAAAAAAAAAAAAAkEAKCAEAAAAAAAAAAAAAAAAggRQQAgAAAAAAAAAAAAAAAEACKSAEAAAAAAAAAAAAAAAAgARSQAgAAAAAAAAAAAAAAAAACaSAEAAAAAAAAAAAAAAAAAASSAEhAAAAAAAAAAAAAAAAACSQAkIAAAAAAAAAAAAAAAAASCAFhAAAAAAAAAAAAAAAAACQQAoIAQAAAAAAAAAAAAAAACCBFBACAAAAAAAAAAAAAAAAQAIpIAQAAAAAAAAAAAAAAACABFJACAAAAAAAAAAAAAAAAAAJpIAQAAAAAAAAAAAAAAAAABJIASEAAAAAAAAAAAAAAAAAJJACQgAAAAAAAAAAAAAAAABIIAWEAAAAAAAAAAAAAAAAAJBACggBAAAAAAAAAAAAAAAAIIEUEAIAAAAAAAAAAAAAAABAAikgBAAAAAAAAAAAAAAAAIAEUkAIAAAAAAAAAAAAAAAAAAmkgBAAAAAAAAAAAAAAAAAAEkgBIQAAAAAAAAAAAAAAAAAkkAJCAAAAAAAAAAAAAAAAAEggBYQAAAAAAAAAAAAAAAAAkEAKCAEAAAAAAAAAAAAAAAAggRQQAgAAAAAAAAAAAAAAAEACKSAEAAAAAAAAAAAAAAAAgAQq7OkAgN7tnXfeiUceeSSl7aCDDop+/fr1UEQAAAAAAAAAAAAAAAAkyZYtW2LJkiUpbeeee27ss88+PRRR91FACPSoRx55JK655pqeDgMAAAAAAAAAAAAAAIBe5I477oirr766p8Pocvk9HQAAAAAAAAAAAAAAAAAA0PkUEAIAAAAAAAAAAAAAAABAAikgBAAAAAAAAAAAAAAAAIAEKuzpAIDe7aCDDkpru+OOO+Koo47qgWgAAAAAAAAAAAAAAABImvnz58c111yT0pappiWJFBACPapfv35pbUcddVSMHz++B6IBAAAAAAAAAAAAAACgN8hU05JE+T0dAAAAAAAAAAAAAAAAAADQ+RQQAgAAAAAAAAAAAAAAAEACKSAEAAAAAAAAAAAAAAAAgARSQAgAAAAAAAAAAAAAAAAACaSAEAAAAAAAAAAAAAAAAAASSAEhAAAAAAAAAAAAAAAAACSQAkIAAAAAAAAAAAAAAAAASCAFhAAAAAAAAAAAAAAAAACQQAoIAQAAAAAAAAAAAAAAACCBFBACAAAAAAAAAAAAAAAAQAIpIAQAAAAAAAAAAAAAAACABFJACAAAAAAAAAAAAAAAAAAJpIAQAAAAAAAAAAAAAAAAABJIASEAAAAAAAAAAAAAAAAAJJACQgAAAAAAAAAAAAAAAABIIAWEAAAAAAAAAAAAAAAAAJBACggBAAAAAAAAAAAAAAAAIIEUEAIAAAAAAAAAAAAAAABAAikgBAAAAAAAAAAAAAAAAIAEUkAIAAAAAAAAAAAAAAAAAAmkgBAAAAAAAAAAAAAAAAAAEkgBIQAAAAAAAAAAAAAAAAAkkAJCAAAAAAAAAAAAAAAAAEggBYQAAAAAAAAAAAAAAAAAkEAKCAEAAAAAAAAAAAAAAAAggRQQAgAAAAAAAAAAAAAAAEACKSAEAAAAAAAAAAAAAAAAgARSQAgAAAAAAAAAAAAAAAAACaSAEAAAAAAAAAAAAAAAAAASSAEhAAAAAAAAAAAAAAAAACSQAkIAAAAAAAAAAAAAAAAASCAFhAAAAAAAAAAAAAAAAACQQAoIAQAAAAAAAAAAAAAAACCBFBACAAAAAAAAAAAAAAAAQAIpIAQAAAAAAAAAAAAAAACABFJACAAAAAAAAAAAAAAAAAAJpIAQAAAAAAAAAAAAAAAAABJIASEAAAAAAAAAAAAAAAAAJJACQgAAAAAAAAAAAAAAAABIIAWEAAAAAAAAAAAAAAAAAJBACggBAAAAAAAAAAAAAAAAIIEUEAIAAAAAAAAAAAAAAABAAikgBAAAAAAAAAAAAAAAAIAEUkAIAAAAAAAAAAAAAAAAAAmkgBAAAAAAAAAAAAAAAAAAEkgBIQAAAAAAAAAAAAAAAAAkkAJCAAAAAAAAAAAAAAAAAEggBYQAAAAAAAAAAAAAAAAAkEAKCAEAAAAAAAAAAAAAAAAggRQQAgAAAAAAAAAAAAAAAEACKSAEAAAAAAAAAAAAAAAAgARSQAgAAAAAAAAAAAAAAAAACaSAEAAAAAAAAAAAAAAAAAASSAEhAAAAAAAAAAAAAAAAACSQAkIAAAAAAAAAAAAAAAAASCAFhAAAAAAAAAAAAAAAAACQQAoIAQAAAAAAAAAAAAAAACCBFBACAAAAAAAAAAAAAAAAQAIV9nQAuWjDhg3x17/+NZYsWRLr1q2LLVu2REFBQfTr1y/22muvOOigg+KII46Ivn379nSoAAAAAAAAAAAAAAAAAPRSCgjbad68eXH//ffHY489Fq+//no0NDS0+fji4uIYO3ZsXHjhhfH3f//3sd9++3VTpAAA9KTLHrssXlv7Wkrb0cOPjvs+cV8PRQTkKvkEAMg2zifQfZL8erO23GRtuSvJ67O23JTktUUkf30AAABA1/P5AtAVFBDuxKxZs+KWW26JP//5zx0aV11dHWVlZVFWVhbf+ta34pJLLokpU6bE6NGjuyjS7jdjxoy0trPPPrsHIukdZs2aFZWVlSltEydO9E2XAAAAAAAAAAAAAAAAQEYKCFuxcePG+NKXvhTTpk3b7bnq6uri3nvvjd/+9rfx3e9+N77xjW9Efn5+J0TZs84555y0tp19MyO7bvLkybF8+fKUtqVLl8aoUaN6JiAAAAAAAAAAAAAAAAAgqykgzOD111+PCy64IN566602Hzd48OAYPXp0DBo0KOrq6mLDhg3x1ltvRUVFRcbHb926Nf7v//2/8Ze//CUeeOCBGDx4cBdEDwAAAAAAAAAAAAAAAAAKCNO88sorceaZZ8b69esz9h988MFx9dVXx3nnnRcf/vCH0/rr6+tj7ty58dvf/jbuuuuuWLt2bdpjZsyYEWeeeWY88cQTMWTIkE5fAwAAAAAAAAAAAAAAAADk93QA2WTJkiXxsY99LGPxYP/+/eMXv/hFvPHGG3HjjTdmLB6MiMjPz4/jjz8+vv/978fixYvjxhtvjPz89G1++eWX4+/+7u+iurq609cBAAAAAAAAAAAAAAAAAAoIt6msrIzzzz8/1q1bl9Z30EEHxcsvvxzXXnttFBQUtHvOAQMGxK233hqPPvpo9OvXL62/rKwsrr/++t2KGwAAAAAAAAAAAAAAAAAyUUC4zU033RQLFixIa99///3jmWeeiUMOOWSX5z777LPj0UcfjZKSkrS+O++8Mx577LFdnhsAAAAAAAAAAAAAAAAAMlFAGBF//etf40c/+lFae0FBQTz00EOxzz777PY1Jk6cGD/84Q8z9l1//fVRXV2929cAAAAAAAAAAAAAAAAAgO0KezqAbHDzzTdHXV1dWvtXvvKVGDt2bKdd57rrrot777035syZk9K+bNmy+J//+Z+47rrrOu1avUFDQ0O89tprsWDBgnj33XejoqIi+vXrF6NGjYpx48bFvvvu29MhAgAAAAAAAAAAAAAAAPSYXv8NhMuXL4+HHnoorX3kyJFxyy23dOq18vPz44477oi8vLy0vkzfgLijKVOmRF5eXsp/U6ZM2eV4li1bljbfqFGjWn38FVdckfLYTHacr7X/7r777ozjZ86cmfbYU089NeUx7777bnzjG9+IffbZJ4499tj43Oc+F//n//yfuOmmm+KrX/1qXHTRRTFy5MgYN25c3HvvvdHQ0LBL+3P33XenxXLFFVfs0lzbZdqL1ux4v5cvX572mAMPPLBd+707zxMAAAAAAAAAAAAAAAAgN/X6AsKpU6dGfX19WvtVV10VpaWlnX69o48+Oq0gLiJi0aJFMWvWrE6/XtLcf//9ceihh8Z//Md/xJo1a9p87IsvvhiXX355jB8/PhYvXtxNEQIAAAAAAAAAAAAAAABkh15fQPjwww+nteXn58eVV17ZZdf8/Oc/n7H9d7/7XZddMwl++MMfxmWXXRYbN27s0Ljnn38+xo0bFy+88ELXBAYAAAAAAAAAAAAAAACQhXp1AeE777wTr732Wlr7ySefHPvvv3+XXfdTn/pU9OnTJ619xowZXXbNXPfQQw/F1772tbT24cOHx9ixY2PixIlxyCGHRFFRUcbx69evj7PPPjsWLlzY1aECAAAAAAAAAAAAAAAAZIXCng6gJz3//PMZ28ePH9+l1+3Tp08cc8wxadf/29/+Fh988EEMGjSoS6+/q2666aa49tprm37OtE9lZWXtmmv06NHtvu77778fV199dTQ0NDS1XXrppfFP//RP8ZGPfCTlsRs2bIjf/OY3MWXKlFi9enVa36WXXhovvvhiFBQUtPv6PeWqq66Ks88+u+nnCy+8MNasWZPymIceeij23nvvnc41cuTITo8PAAAAAAAAAAAAAAAAyG69uoDw1Vdfzdh+/PHHd/m1jz/++LQCwoaGhnj11Vdj4sSJXX79XTF69OidFv7tWNDXGV5//fWm/19SUhIPPPBAXHjhhRkfO2TIkLj66qvj05/+dFxyySXx+OOPp/S/8sor8cMf/jC+/vWvd3qcnW3kyJEphX8lJSVpjznuuONi1KhR3RgVAAAAAAAAAAAAAAAAkCt6dQHh4sWLM7aPGTOmy689duzYjO2LFy/O2gLCnpaXlxf33Xdfq8WDLQ0dOjQefvjhOOOMM2LOnDkpfbfccktcddVVMXTo0K4KtVdp77dOtmb+/PmdFAkAAAAAAAAAAAAAAADQUq8uIFy1alXG9r322qvLr73nnntmbF+5cmWXXztXTZ48OT71qU+1+/GlpaVxzz33xJFHHhk1NTVN7RUVFTFt2rT48pe/3AVR9j4TJkzo6RAAAAAAAAAAAAAAAACADHp1AeH69evT2oqKiqK0tLTLrz148OCM7Rs2bOjya+eikpKS+P73v9/hcYccckhcd9118eMf/zil/b/+678UEGaxWQ8siDVlebHnAYPio586LKWv7HcLY82SjRERcc61Y6NPaVFT36pF6+KFR96MiIijJh4QHxq7d8rY6bc/H/V1DTF4z9I47XNHp/TNfXxxLF+wNiIiTp90dAwa1pwH1r79QTz7mzciIuLgE/aJI0/eP2XsjP+aG5Xl1dG3f3GcfXXqN5gueGZFvPniOxERcdJnDovh+w1q6vvg/Yp4etprERFxwJHDY8zHR6eM/fO9r8XG9yoivyAvzv/SiSl9b728OubPWh4REePOPTj2PWSPpr6tFTXxx1++HBERIw4aHOMvODRl7HP/+0a8t/yDiIg49/rjo6ik+VfB22+sjZf+2PjtrMecPioOOnZEytiHb2v8Rs+he/ePiZccmdL34mNvxsqF6yIi4mNXHhP9h/Rt6nt32caY/dDCiIg4dPzIOGz8yJSxj/3ipaiqrI1+g/vEx//h2JS+12Yui8Vz10RExCl/f0Tssc+Apr4N75bHzPsWRETEgcfsFceecWDK2KfumReb1lVGYXFBnPePJ6T0/e2FVfHXZ9+OiIiPnH9I7D26+VtJKzZXxZ/++5WIiNjn4KFx4nmHpIx95sHX4/2VmyMi4pM3jIuCwvymvmXz341XnlgaERHHfezAGHVUc1F6XW19/P7HL0RExLCRA+Lki49Imff5PyyKd95s/N101heOi9IBJU19qxevjznTF0VExOEn7RcfHrdvytg//PTFqK2ui4F79I0zJh+T0vfqU0tj6bx3IyLi1MuOjCF79W/qW/fO5vjLr16PiIjRY0bE0aeOShn7+F2vxpaNW6Okb2F84rrjU/reKFsZC8saC98nXHRo7DVqcFNf+YbKeGLqvIiIGHnoHnHCJw5OGTvrgQWxfnV5RERc+NWPpPQteXVNzHt6WUREHH/O6NjvsOFNfTVVtfHIz16KiJAj5IiIyM4csfn9ymiNHNFIjmgmRzTqTTmiI+eITNa/Ux7PPPi6HCFHyBHb9OYc4RwhR8gRjeSIRt2VIzJZ/055PHXPPDlCjpAjtumsHFEzqjZ2tP6d8nj4tjlZmyM6co5oSy7niM3D0z8XKl9f2fQ8zfUcsTO5miPWDyyPKErpipqtdU1jszFHdPQc0ZZszBHtPUdU7F2Vtp4P3quIh2+bk5U5oqPniJ3JthzR3nPEhkHlaX9TZWt5TdNrLttyRETHzxFtycYckWvnCO81GuXaOcJ7jWa5do6QIxrJEY3kiGZyRCM5opEc0UiOaCZHNJIjGskRjeSIZj6zbCRHNJIjGvVUjuhtenUBYWVl+h/iDRrU/j8E2x2tXSdTTESce+65u/zNkJ///OfTCgjfeOONWLJkSRx00EGdER6dbOuWmqjYVBVVFTVpfdWVtVGxadsfBjY0pPTV1tQ19dVU16WNrdhUFfV1DdGnX/ofvNVsbZ63oT513vq6hqa+2qr0v7RRWV7dHNMOaqua562vS523ob553pqt6fNu34f8grz0eKub11pbs8NaG5rnra5Mn7eqoqb1eGvqd7qHERGlA0vS+lL2MHWpUVfbYt4Me1ixuTqqKmpSDn9N81bVtdjD+pS+ne3h9ntTVFLQ5rx1tanzRkO02MP052FVRW279rC2pj6tf3tfVUXftL7qyhb3ps09TL83lZuroqaqLvNa23x+tz3v1m17mLZH0XgvW9vDhhZ72NbzO5PU53dbeyhHyBHZmSPq6xsi0m9LRMgR28kRzeSIaFpDb8kRu3OO2L6Oqor0eOWIbfPKEU3XkSO2zduLcoRzxLZ55Yimx8sRckRLXZUjIhr3p7KqOq1djohtc8kRjRPLEdu1N0fsGO/2a1VsqsqZHNHWOaItuZwjGvZIv3H19dFiD3M7R+xMruaI+n71aX8ZJ6Ihq3NER88RbcnGHNHec0TDiLShTf3ZmCM6eo7YmWzLEe09R9T3b0j7myoNLfJAtuWIbSGk2Nk5oi3ZmCNy7RzhvUZsmyu3zhHea7SYN8fOEXLEtnnliIiQI1qSIxrJEdvmlSMiQo5oSY5oJEdsm1eOiAg5oqX25Ije8JmlHLFtXjkiInouR/Q2vbqAsK4u/QlbUpKeiLtCa9epqenYH+j0FhdffPEujz366KPj0EMPjYULF6a0v/DCCwoIs1SffkVROrAkSjL8C5vFfQubD0x5qYe5wqKCpr6i4vRf3KUDS1r9hVTUp3nevPzUefML8pr6CkvS02bf/sUp/5sSU0nzvDsePvPym+ct6pM+7/Z9yHRoLSpuXmth0Q5rzWuet7hv+rwlpUUZD52Nc+XvdA+3x5YWU8s93CHkgsIW82bYw9IBxVFQmB99MuxhUUlBiz1MPdTubA/79i+Omqq6KMywlpbzph2W86LFHqavtaS0sF17WFiUfgjf3ldSmh5vcd8W96bNPUxfT98BJVFUUpfxedj287vtefv0L4662vooyfBcKmrx/N5xD/Na7GFbz+9MUp/fbe2hHCFHZGeOyM/PS3vjuZ0csS18OaKJHBFNa+gtOWJ3zhHb1yFHyBHbHy9HyBEtOUdsm1eOaHq8HCFHtNRpOWJz+rXzC/Kjbx85Qo6QI7brrByxY7zbr1U6sCR7c8QO2jpHtCWXc0Refl7EDn8On58fickRO5OrOWLH1/G2oLI6R3T0HNGWbMwR7T1HtJUrszFHdPQcsTPZliN25xyR1yIPZFuO2BZCip2dI9qSjTki184R3mvEtrly6xzhvUaLeXPsHCFHbJtXjogIOaIlOaKRHLFtXjkiIuSIluSIRnLEtnnliIiQI1pqT47oDZ9ZyhHb5pUjIqLnckRvk9fQ0MF/xi5BDj/88HjjjTdS2gYMGBCbNm3q8mu//PLLcfzxx6e1X3/99fHTn/4045gpU6bELbfcktJ28803x5QpU3YphmXLlsWBB6Z+xewBBxwQy5Yta9f4vAx/gLG7T6eZM2fGaaedlta+ZMmStFg7YtKkSfH//t//S2n7yle+ErfddlurY+6+++648sorU9omT54cd9999y7HsTt7NmrUqFi+fHlK29KlS2PUqFG7HE9nKCsr263x8+fPj2uuuSalbfbs2TF+/PjdmhcAesplj10Wr619LaXt6OFHx32fuK+HIgJylXwCAGQb5xPoPkl+vVlbbrK23JXk9Vlbbkry2iKSvz4AAACg6/l8AbpOWVlZTJgwIaWtt9Sv9OoSyn79+qW1lZeXR11dXRQUpFfDdqaNGze2O6bebuDAgbtVPBgRccwxx6QVEC5ZsmS35qRRb0iUAAAAAAAAAAAAAAAAkIsyfbdprzFixIi0toaGhvjggw+6/NqtXSNTTL3dXnvttdtzZNrX1oo4AQAAAAAAAAAAAAAAAJKgVxcQ7rfffhnb33zzzS6/9qJFizK2txZTbzZw4MAumWPDhg27PS8AAAAAAAAAAAAAAABAturVBYRHHHFExvYXX3yxy6/d2jVai6k369u3b5fMUVFRsdvzAgAAAAAAAAAAAAAAAGSrXl1AOGbMmIztL730UpdfO9M1+vXrFx/+8Ie7/Nq5pry8fLfn2Lx5c1rboEGDdnteAAAAAAAAAAAAAAAAgGzVqwsIx44dGwMGDEhrf/LJJ6Ourq7Lrvu3v/0tVqxYkdY+ceLEyM/vvltSU1PTbdfaHZs2beqSOQYPHrzb83ZEruw3AAAAAAAAAAAAAAAAkAy9uoCwuLg4zjzzzLT2VatWxYwZM7rsunfeeWfG9nPOOafNcYWFhWlttbW1uxzHunXrdnlsd1q5cuVuF98tXbo0rW3o0KFtjumt+w0AAAAAAAAAAAAAAAAkQ68uIIyIuOyyyzK2t1bkt7tqampi2rRpae3FxcXx2c9+ts2xmb4tsby8fJdjWbVq1S6P7U7V1dXxxhtv7NYc8+bNS2s74ogj2hzTW/cbAAAAAAAAAAAAAAAASIZeX0D4yU9+MkaMGJHW/vvf/z7Kyso6/Xr/+Z//Ge+9915a+4UXXhjDhw9vc+ygQYPS2tasWbPLsTz33HO7PLa7PfPMM7s8tq6uLuO9HDduXJvjsm2/8/Lydms8AAAAAAAAAAAAAAAA0Lv0+gLCoqKi+MY3vpHWXl9fH1/4wheipqam0661dOnSuOWWW9La8/Ly4jvf+c5Ox++zzz5pba+99touxdLQ0BCPPPLILo3drqSkJK2tM/erpfvvv3+Xxz755JPx7rvvprTl5eXttIAw034vWLAg6uvrdymO3//+97s0brvu3G8AAAAAAAAAAAAAAAAg9/X6AsKIiOuuuy4+9KEPpbW//vrr8e1vf7tTrlFTUxNXXHFFVFRUpPVNnjw5jjzyyJ3OMWbMmLS2hQsXxttvv93heH7/+9/Hm2++2eFxLQ0YMCCtbcuWLbs1Z2tmz54dL7/88i6N/clPfpLWduaZZ8Yee+zR5riDDz44bY1btmyJ2bNndziGefPmxVNPPdXhcS11534DAAAAAAAAAAAAAAAAuU8BYTR+s9udd94ZeXl5aX233npr/PCHP9yt+WtqauLyyy+Pv/zlL2l9I0aMiNtuu61d8wwbNiwOOOCAlLaGhob4n//5nw7Fs2HDhrjhhhs6NCaTIUOGpLUtW7Zst+dtzQ033BANDQ0dGjNjxox49NFH09qvvvrqnY7Ny8vLWLR55513diiG6urq+PznP9+hMZl0934DAAAAAAAAAAAAAAAAuU0B4TYTJ06Mm2++OWPfjTfeGNdff31s3bq1w/OuWbMmzjnnnPj1r3+d1ldUVBS/+tWvMhaGtebTn/50Wtutt94aixYtatf4TZs2xac+9alYsWJFu6/ZmsMPPzytraysbLfnbc3s2bPjxhtvbPfj33zzzZg8eXJa+wEHHBDnn39+u+bItN/Tpk3LWAyaSU1NTVx55ZW7/O2JLXX3fgMAAAAAAAAAAAAAAAC5TQFhC9/97nfjc5/7XMa+n//853HkkUfGvffeG9XV1Tuda+PGjXHrrbfG4YcfHk899VRaf15eXvzyl7+MiRMndijGTN9kV1FREWeccUa89NJLbY6dNWtWfPSjH40///nPERFRWlraoWvvaOzYsWltt99+e3zwwQe7Ne+OWn4z5G233RZf/OIXY8uWLW2OmTVrVpxxxhnx3nvvpfX9/Oc/j6KionZd+7LLLos+ffqktDU0NMQnP/nJ+NOf/tTm2FdffTVOP/30uP/++yOia/b7rrvuipUrV+7WvAAAAAAAAAAAAAAAAEAyFfZ0ANkkLy8v7rnnnigsLIy77747rX/x4sVx+eWXx1e+8pU466yz4sQTT4zRo0fHwIEDo76+PtavXx+LFi2KZ599Np588smorKzMeJ2CgoK444474h/+4R86HONhhx0WkyZNimnTpqW0r1y5Mk488cQ477zz4hOf+ESMGjUqSkpKYu3atfHXv/41Hn300XjhhReaHp+fnx8//vGP46qrrupwDNt9+tOfju9+97spbX/729/iiCOOiMsvvzzGjh0bw4YNSyvAi4gYPXp0DB8+vF3XmTBhQmzZsiVeffXViIj4xS9+EY8++mh8/vOfj/POOy/233//6N+/f6xevTrmzp0b9913Xzz88MPR0NCQNtell14an/jEJ9q9xiFDhsTXv/71+N73vpfS/sEHH8TZZ58dp59+epx//vlx8MEHR//+/eP999+PN998M2bMmBEzZ85MieGnP/3pLt3z7c4999zo06dPyjdhvv/++3HMMcfE5ZdfHieeeGKMGDEi+vbtmzZ25MiRMXLkyF2+NgAAAAAAAAAAAAAAAJB7FBDuID8/P6ZOnRpHHnlkfOtb34qampq0x7z//vtx3333xX333dfh+YcPHx6//vWv47TTTtvlGH/0ox/FU089FatWrUppr6+vj+nTp8f06dN3OsfPfvazOOOMM3Y5hojGYsaPfexj8cQTT6S0r1q1Kr7//e+3OXbq1KlxxRVXtOs6hYWFcf/998f48eObvt1wxYoVcfPNN8fNN9/c7niPO+64uOOOO9r9+O2+/e1vx/Tp02PevHlpfU8//XQ8/fTTO53jG9/4Rlx55ZW7VUA4ZMiQuPzyy+O///u/U9rXr18ft99+e5tjb7755pgyZcouXxsAAAAAAAAAAAAAAADIPXkNmb6mjYiImD9/fnzxi1+MZ599drfnys/Pj0mTJsUPfvCD2GOPPXZ7vrfeeivOPPPMWL58eYfGFRcXxy9/+cu48sorY9myZXHggQem9B9wwAGxbNmyds+3cuXKGDNmTKxdu7ZDcbRWQDhz5sy04sqJEyfGzJkz49lnn43zzjsvNm7c2KFrRUSMHz8+HnnkkRg6dGiHx0ZErF27Ns4666x45ZVXOjQuLy8vvve978V3vvOdpp931JGX4ObNm+P444+PRYsWdSiObC4gLCsriwkTJqS0zZ49O8aPH99DEQEAAAAAAAAAAAAAAJAkvbl+Jb+nA8hmRx11VDzzzDPx5JNPxnnnnRdFRUUdnmPQoEHxhS98If7617/G1KlTO6V4MCLiQx/6UMyZMyeuuOKKyM9v3208+eST46WXXoorr7yyU2KIiBg5cmTMnTs3zjrrrE6bszUnnXRSvPDCC3HSSSe1e0xJSUl861vfilmzZu1y8WBE4zdHzpw5M7761a9GcXFxu8YcffTRMXPmzKbiwc4wYMCAmDNnTlxyySXtvu8AAAAAAAAAAAAAAABA71TY0wHkgjPOOCPOOOOMWL9+fTzxxBPx3HPPxYIFC2Lp0qWxfv36qKioiLy8vOjXr1/stddeMXr06Dj22GPj5JNPjtNOOy1KSkq6JK4RI0bE1KlT45vf/Gb87ne/i8cffzyWLl0aa9eujaqqqhg0aFAcfPDB8dGPfjQ+85nPxLhx41LGjxo1qkPffteakSNHxowZM2LRokXxm9/8JubOnRuvv/56rF+/PjZv3hxbt27d7Wtsd/DBB8czzzwTTzzxRNxzzz3x5JNPxrvvvpvymLy8vDjssMPiggsuiGuvvTb222+/Trn2wIED44c//GF8+ctfjocffrhpzWvXro2KiooYMGBAHHTQQXHiiSfGRRddFGeccUbaHJ2x30OGDIn7778//uM//iN+/etfx0svvRTz58+PtWvXRnl5eVRUVOz2NQAAAAAAAAAAAAAAAIDcl9fQGRVN0ElmzpwZp512WkrbxIkTY+bMma2Oef/992PNmjVRWVkZ/fr1iwMOOCD69evXxZHSWXrzV8ACAAAAAAAAAAAAAADQ9Xpz/YpvICTnDRs2LIYNG9bTYQAAAAAAAAAAAAAAAABklfyeDgAAAAAAAAAAAAAAAAAA6HwKCAEAAAAAAAAAAAAAAAAggRQQAgAAAAAAAAAAAAAAAEACKSAEAAAAAAAAAAAAAAAAgARSQAgAAAAAAAAAAAAAAAAACaSAEAAAAAAAAAAAAAAAAAASSAEhAAAAAAAAAAAAAAAAACSQAkIAAAAAAAAAAAAAAAAASCAFhAAAAAAAAAAAAAAAAACQQIU9HQC0dOqpp0ZDQ0NPhwEAAAAAAAAAAAAAAACQ83wDIQAAAAAAAAAAAAAAAAAkkAJCAAAAAAAAAAAAAAAAAEggBYQAAAAAAAAAAAAAAAAAkEAKCAEAAAAAAAAAAAAAAAAggRQQAgAAAAAAAAAAAAAAAEACKSAEAAAAAAAAAAAAAAAAgARSQAgAAAAAAAAAAAAAAAAACaSAEAAAAAAAAAAAAAAAAAASSAEhAAAAAAAAAAAAAAAAACSQAkIAAAAAAAAAAAAAAAAASCAFhAAAAAAAAAAAAAAAAACQQAoIAQAAAAAAAAAAAAAAACCBFBACAAAAAAAAAAAAAAAAQAIpIAQAAAAAAAAAAAAAAACABFJACAAAAAAAAAAAAAAAAAAJpIAQAAAAAAAAAAAAAAAAABJIASEAAAAAAAAAAAAAAAAAJJACQgAAAAAAAAAAAAAAAABIIAWEAAAAAAAAAAAAAAAAAJBACggBAAAAAAAAAAAAAAAAIIEUEAIAAAAAAAAAAAAAAABAAikgBAAAAAAAAAAAAAAAAIAEUkAIAAAAAAAAAAAAAAAAAAmkgBAAAAAAAAAAAAAAAAAAEkgBIQAAAAAAAAAAAAAAAAAkkAJCAAAAAAAAAAAAAAAAAEggBYQAAAAAAAAAAAAAAAAAkEAKCAEAAAAAAAAAAAAAAAAggQp7OgCgdUuWLInFixfHihUrYtOmTVFRURHFxcUxePDgGDJkSOy1115xzDHHxMCBA3s6VICedeeZEStfTG0beULEVU/2TDydydqAzuD1BtC7+T1AtvGchO6T5NebteUma8tN1pa7krw+a8tNSV4bAG3zOwC6j9cb2Sbpz8mkr4/ck+TnZJLXBtANFBBCFtmwYUNMnz49Hn744Xjuuedi3bp1Ox2Tl5cXH/7wh2PcuHFx0UUXxTnnnBPFxcXdEC0AAAAAAAAAAAAAAACQzRQQQhZYsWJF/Pu//3vcfffdUVFR0aGxDQ0NsXDhwli4cGFMmzYthg4dGp/97GfjxhtvjIMOOqiLIgYAAAAAAAAAAAAAAACyXX5PBwC9WW1tbfzLv/xLHHroofHzn/+8w8WDmaxfvz5+8YtfxGGHHRZf/vKX4/333++ESAEAAAAAAAAAAAAAAIBc4xsIoYesXr06PvvZz8Yzzzyz08cOHz489t9//xgwYEAUFBREeXl5vPPOO7Fq1aqor6/POKa6ujpuv/32mD9/fjz11FOdHT4AAAAAAAAAAAAAAACQ5RQQQg9YsmRJnHnmmbF06dKM/X379o1Pf/rTcdFFF8VJJ50Uw4YNy/i4ioqKmDNnTjz++OPxq1/9KpYvX572mLq6uk6NHQAAAAAAAAAAAAAAAMgN+T0dAPQ27733Xpx++ukZiwcLCgriy1/+cixfvjymTZsWF1xwQavFgxERpaWlcfrpp8f3v//9WLp0aUyfPj3GjRvXleEDAAAAAAAAAAAAAAAAOUIBIXSj2traOP/88zN+U+Dee+8dzzzzTPznf/5nDB8+vMNz5+XlxSc/+cmYM2dO3HPPPTF06NDOCBkAAAAAAAAAAAAAAADIUQoIoRv9y7/8S8yZMyetfeTIkfHss8/G+PHjd/saeXl5MWnSpJg3b16cdNJJuz0fAAAAAAAAAAAAAAAAkJsUEEI3Wbx4cfzrv/5rWntBQUH87//+bxx00EGder2RI0fGU089FZdcckmnzgsAAAAAAAAAAAAAAADkBgWE0E1uuummqKmpSWv/5je/GePGjeuSaxYXF8c111zTJXMDAAAAAAAAAAAAAAAA2U0BIXSDVatWxYMPPpjWPmrUqLj55pt7ICIAAAAAAAAAAAAAAAAg6RQQQje46667oq6uLq396quvjqKioh6ICAAAAAAAAAAAAAAAAEg6BYTQDR566KG0tqKiovj85z/fA9EAAAAAAAAAAAAAAAAAvYECQuhiq1evjldffTWt/dRTT40999yz+wMCAAAAAAAAAAAAAAAAegUFhNDFnn/++Yzt48aN6+ZIAAAAAAAAAAAAAAAAgN6ksKcDgKR75ZVXMrafcMIJ3RxJ1ygrK9ut8fPnz++kSAAAAAAAAAAAAAAAAICWFBBCF1uyZEnG9uOOO66bI+kaEyZM6OkQAAAAAAAAAAAAAAAAgAwUEEIXW7lyZcb2YcOGdXMkuWPWAwtiTVle7HnAoPjopw5L6Sv73cJYs2RjREScc+3Y6FNa1NS3atG6eOGRNyMi4qiJB8SHxu6dMnb67c9HfV1DDN6zNE773NEpfXMfXxzLF6yNiIjTJx0dg4aVNvWtffuDePY3b0RExMEn7BNHnrx/ytgZ/zU3Ksuro2//4jj76jEpfQueWRFvvvhORESc9JnDYvh+g5r6Pni/Ip6e9lpERBxw5PAY8/HRKWP/fO9rsfG9isgvyIvzv3RiSt9bL6+O+bOWR0TEuHMPjn0P2aOpb2tFTfzxly9HRMSIgwbH+AsOTRn73P++Ee8t/yAiIs69/vgoKmn+VfD2G2vjpT8ujoiIY04fFQcdOyJl7MO3zYmIiKF794+JlxyZ0vfiY2/GyoXrIiLiY1ceE/2H9G3qe3fZxpj90MKIiDh0/Mg4bPzIlLGP/eKlqKqsjX6D+8TH/+HYlL7XZi6LxXPXRETEKX9/ROyxz4Cmvg3vlsfM+xZERMSBx+wVx55xYMrYp+6ZF5vWVUZhcUGc94+p3/r5txdWxV+ffTsiIj5y/iGx9+ihTX0Vm6viT//d+O2h+xw8NE4875CUsc88+Hq8v3JzRER88oZxUVCY39S3bP678coTSyMi4riPHRijjtqrqa+utj5+/+MXIiJi2MgBcfLFR6TM+/wfFsU7b66PiIizvnBclA4oaepbvXh9zJm+KCIiDj9pv/jwuH1Txv7hpy9GbXVdDNyjb5wx+ZiUvlefWhpL570bERGnXnZkDNmrf1Pfunc2x19+9XpERIweMyKOPnVUytjH73o1tmzcGiV9C+MT1x2f0vdG2cpYWNaY4yZcdGjsNWpwU1/5hsp4Yuq8iIgYeegeccInDk4ZO+uBBbF+dXlERFz41Y+k9C15dU3Me3pZREQcf87o2O+w4U19NVW18cjPXoqIyJgjWqqvb4j8Fj/nao6YuKU8hka6JOWIlio2V0fpDm1yRCM5otHu5AjniFTrV5dH5aJ1WZ8jnCMayRHN5IhG3ms0kiMa7SxHbN6wNQZEZnJEIzmiWXfkiPP7p75fi2g8m8y6bY4c4RwREXLEdp2RI06r3BKDI1XFpqr407bXVTbmiI6eI9qSqzki0+dBdXX18ftt9y0JOaKl2pq6lD+wzNUc0drneNmcIzp6jmipfOPW6L9DWzbmiJ2dI0avznzfsjlHRHT8HNFSQ0NEXoufszFHtOcc0dprLltzRETHzxEtbd1SHX12aMu2HNGec8QxrbzmsjVH5OI5IsJ7jVw8R0Tk3nuNXPw8Qo7o4RwR6bZ/HiRHLIsIOUKOaNQZOeLjDVXRL1J9sLYinr5tTvbmCOeIiEh+jmhLLueIcwpq0t6vbf8dl405IifPEXJERHQsR+xMNuaI9pwjMn0eVFtTH3/Y9ns5G3NErp0j5IjekSNy8RzRVe81ehsFhNDFNmzYkNZWVFQUpaU7lkew3dYtNVGxqSqqKmrS+qora6NiU1XjDw0NKX21NXVNfTXVdWljKzZVRX1dQ/Tpl/4HbzVbm+dtqE+dt76uoamvtqo2bWxleXVzTDuorWqet74udd6G+uZ5a7amz7t9H/IL8tL6aqqb11pbs8NaG5rnra5Mn7eqoqb1eGvqd7qHERGlA0vS+lL2MHWpUVfbYt4Me1ixuTqqKmpSDn9N81bVtdjD+pS+ne3h9ntTVFLQ5rx1tanzRkO02MP052FVRW279rC2pj6tf3tfVUV68VR1ZYt70+Yept+bys1VUVNVl3mtbT6/255367Y9TNujaLyXre1hQ4s9bOv5nUnq87utPUy/N6lBpP6YqzmiLtL3ICJZOSI1vPROOSKariVH7F6OcI5IVVdXnxM5wjmimRyxbV45ounx3mvIES21lSMa6jOfKbfHKEc0kiMadUuO2LHaIBrPJhWbquQI54iIkCOaYuqEHFFfkP4+u6GhISo2Z3GO2MHOzhFtydUc0drnQUnKESl2mDdXc0Rr9y2bc0QmbZ0jWsr0OV425oidnSPq6jLft2zOEdvjS5247RzRlmzMEe05R7T62XmW5oiIjp8jWsr0ti7bckR7zhGtveayNUfk4jlie3ypEyfrHOG9RmybK7fOEbn4XkOOaNRVOSKi+fMgOUKOkCNazNsJOaKhX/q5cvvzP1dyhHPEtnkTliPakss5omFw+mtu+++4bMwRSThHyBHb5t1JjmhLNuaI9pwjdvbZeTbmiFw7R8gRvSdH5No5oqvea/Q2Cgihi1VWVqa1DRqU+V9rpVGffkVROrAkSjL8C5vFfQubD0x5qYe5wqKCpr6i4vRf3KUDS1r9hVTUp3nevPzUefML8pr6CkvS02bf/sUp/5sSU0nzvDsePvPym+ct6pM+7/Z9yHRoLSpuXmth0Q5rzWuet7hv+rwlpUUZD52Nc+XvdA+3x5YWU8s93CHkgsIW82bYw9IBxVFQmB99MuxhUUlBiz1MPdTubA/79i+Omqq6KMywlpbzph2W86LFHqavtaS0sF17WFiUfgjf3ldSmh5vcd8W96bNPUxfT98BJVFUUpfxedj287vtefv0L4662vooyfBcKmrx/N5xD/Na7GFbz+9MUp/fbe1h5n+FtzmI1B9zNUcUbMmPyPB345KUI1LDS++UI6LpWnLE7uUI54hUBQX5OZEjnCOayRHb5pUjmh7vvYYc0VJbOSIvP/3x28kRzeSIRj2RIyIazyal/UrkCOeIiJAjmmLqhByRX5mX9rlCXovXay7kiJ2dI9qSqzmitc+DkpQjUuwwb67miNbuWzbniI6eI1rK9DleNuaInZ0jCgoy37dszhHb40uduO0c0ZZszBHtOUe0+tl5luaIiI6fI1rK9LYu23JEe84Rrb3msjVH5OI5Ynt8qRMn6xzhvUZsmyu3zhG5+F5DjmjUaTliU/r47Z8HyRFyhBzRYt5OyBF5Den7lF+QH6WlJdmbI3bgHLFt3oTliLbkco7I9BnJ9t9x2ZgjcvIcsQM5Ytu8O8kRbcnGHNGec8TOPjvPxhyRa+cIOaL35IhcO0d01XuN3iavIdM/Dwl0mtGjR8eSJUtS2vbdd99YuXJlD0XUucrKynZr/Pz58+Oaa65JaZs9e3aMHz9+t+YFepk7z4xY+WJq28gTIq56smfi6UzWBnQGrzeA3s3vAbKN5yR0nyS/3qwtN1lbbrK23JXk9Vlbbkry2gBom98B0H283sg2SX9OJn195J4kPyeTvDag25SVlcWECRNS2npL/YoSSuhiffr0SWv74IMPeiCSrtEbEiUAAAAAAAAAAAAAAADkoo59Xy3QYf369UtrKy8vj7q6DN+hDAAAAAAAAAAAAAAAANBJFBBCFxsxYkTG9iR9CyEAAAAAAAAAAAAAAACQfRQQQhfbb7/9MrYvXbq0myMBAAAAAAAAAAAAAAAAehMFhNDFjjjiiIztL7zwQjdHAgAAAAAAAAAAAAAAAPQmCgihi40dOzZj+4svvtjNkQAAAAAAAAAAAAAAAAC9iQJC6GJjxoyJQYMGpbXPmjUrGhoaeiAiAAAAAAAAAAAAAAAAoDdQQAhdrKioKM4666y09iVLlsRTTz3VAxEBAAAAAAAAAAAAAAAAvYECQugGl19+ecb2X/7yl90cCQAAAAAAAAAAAAAAANBbKCCEbnDOOefE/vvvn9Y+ffr0eOWVV3ogIgAAAAAAAAAAAAAAACDpFBBCNygoKIibbroprb22tjYmTZoUVVVVXXbtdevWddncAAAAAAAAAAAAAAAAQPZSQAjd5Morr4yjjz46rX3BggXxta99rUuu+cgjj8QVV1zRJXMDAAAAAAAAAAAAAAAA2U0BIXSTgoKCmDZtWhQVFaX1/eQnP4lvfvOb0dDQ0CnXqq6ujq9//evxyU9+MjZv3twpcwIAAAAAAAAAAAAAAAC5RQEhdKNjjjkmfvazn2Xs+/d///c477zzYtWqVbt1jcceeyyOOuqouPXWWzutIBEAAAAAAAAAAAAAAADIPQoIoZt94QtfiJtuuilj36OPPhqHHnpofO1rX4slS5a0e85NmzbF3XffHWPHjo2/+7u/i0WLFnVWuAAAAAAAAAAAAAAAAECOKuzpAKA3+t73vhf9+vWLb33rW2nfElheXh4/+MEP4gc/+EEce+yxcdJJJ8Xhhx8e+++/fwwYMCAKCgpiy5Yt8c4778Tf/va3KCsrizlz5kRVVVUPrQYAAAAAAAAAAAAAAADIRnkNO1YvAd3mj3/8Y0yePDnWrl3bJfMPHDgwvv/978d1113XJfN3hrKyspgwYUJK2+zZs2P8+PE9FBEAAAAAAAAAAAAAAABJ0pvrV/J7OgDozc4555xYuHBhfPGLX4yioqJOm7ekpCS+9KUvxeLFi7O6eBAAAAAAAAAAAAAAAADoOgoIoYcNHTo0fvazn8WSJUvim9/8Zuy///67PNe4cePipz/9aaxatSp+9KMfxbBhwzoxUgAAAAAAAAAAAAAAACCXFPZ0AECjkSNHxr/927/Fv/3bv8XcuXPj2WefjRdffDEWL14cK1asiA8++CAqKyujuLg4hgwZEkOGDIkRI0bEmDFj4oQTTogTTzxxt4oPAQAAAAAAAAAAAAAAgGRRQAhZaMyYMTFmzJieDgMAAAAAAAAAAAAAAADIYfk9HQAAAAAAAAAAAAAAAAAA0PkUEAIAAAAAAAAAAAAAAABAAikgBAAAAAAAAAAAAAAAAIAEUkAIAAAAAAAAAAAAAAAAAAmkgBAAAAAAAAAAAAAAAAAAEkgBIQAAAAAAAAAAAAAAAAAkkAJCAAAAAAAAAAAAAAAAAEggBYQAAAAAAAAAAAAAAAAAkEAKCAEAAAAAAAAAAAAAAAAggRQQAgAAAAAAAAAAAAAAAEACKSAEAAAAAAAAAAAAAAAAgARSQAgAAAAAAAAAAAAAAAAACaSAEAAAAAAAAAAAAAAAAAASSAEhAAAAAAAAAAAAAAAAACSQAkIAAAAAAAAAAAAAAAAASCAFhAAAAAAAAAAAAAAAAACQQAoIAQAAAAAAAAAAAAAAACCBFBACAAAAAAAAAAAAAAAAQAIpIAQAAAAAAAAAAAAAAACABFJACAAAAAAAAAAAAAAAAAAJpIAQAAAAAAAAAAAAAAAAABJIASEAAAAAAAAAAAAAAAAAJJACQgAAAAAAAAAAAAAAAABIIAWEAAAAAAAAAAAAAAAAAJBACggBAAAAAAAAAAAAAAAAIIEUEAIAAAAAAAAAAAAAAABAAikgBAAAAAAAAAAAAAAAAIAEUkAIAAAAAAAAAAAAAAAAAAmkgBAAAAAAAAAAAAAAAAAAEkgBIQAAAAAAAAAAAAAAAAAkkAJCAAAAAAAAAAAAAAAAAEggBYQAAAAAAAAAAAAAAAAAkEAKCAEAAAAAAAAAAAAAAAAggRQQAgAAAAAAAAAAAAAAAEACKSAEAAAAAAAAAAAAAAAAgARSQAgAAAAAAAAAAAAAAAAACaSAEAAAAAAAAAAAAAAAAAASSAEhAAAAAAAAAAAAAAAAACSQAkIAAAAAAAAAAAAAAAAASKDCng4AepMpU6bELbfc0uFx+fn50b9//xg0aFAMGzYsjjrqqDj22GPj4x//eBxxxBFdEClAjrnzzIiVL6a2jTwh4qoneyaezmRtZBv3LTe5b7nJfYPuleTXXJLXRm5K8nMyyWtLsiTfN2vLTdaWm6wtNyV5bRHJXp+1AZBEfgcAtE2ezE3uG3SvJL/mkrw2gG6ggBByQH19fWzatCk2bdoUb7/9drzyyisxbdq0iIgYO3ZsfOlLX4rLL7+8h6MEAAAAAAAAAAAAAAAAskl+TwcA7J6XX345Jk2aFKecckosX768p8MBAAAAAAAAAAAAAAAAsoQCQkiIZ555Jk455ZRYvHhxT4cCAAAAAAAAAAAAAAAAZIHCng4AiCgrK2uzv6amJjZt2hTLli2LuXPnxvTp02PdunVpj1uxYkWce+65MW/evCguLu6qcAEAAAAAAAAAAAAAAIAcoIAQssBHPvKRDj3+l7/8Zdx+++3xne98J6qqqlL6Fi5cGLfeemt8+9vf7swQAQAAAAAAAAAAAAAAgByT39MBAB1XVFQUN954Y/z2t7+NvLy8tP477rijB6ICAAAAAAAAAAAAAAAAsokCQshh5557blx66aVp7W+//XbMnTu3ByICAAAAAAAAAAAAAAAAsoUCQshxl19+ecb2N954o5sjAQAAAAAAAAAAAAAAALKJAkLIcccdd1zG9jVr1nRzJAAAAAAAAAAAAAAAAEA2UUAIOW7IkCEZ22tqaro5EgAAAAAAAAAAAAAAACCbKCCEHLdx48aM7a0VFgIAAAAAAAAAAAAAAAC9gwJCyHGvvvpqxvbDDz+8ewMBAAAAAAAAAAAAAAAAsooCQshx9957b1pbv379YuzYsT0QDQAAAAAAAAAAAAAAAJAtFBBCDpsxY0bGAsJLL700SktLeyAiAAAAAAAAAAAAAAAAIFsoIIQcVFtbGz/60Y/iwgsvjPr6+pS+wYMHx/e+970eigwAAAAAAAAAAAAAAADIFoU9HQAQMWfOnDb7a2pqory8PJYtWxZz586N6dOnx9q1a9Me169fv5g+fXqMGDGiq0JNU1ZWtlvj58+f30mRAAAAAAAAAAAAAAAAAC0pIIQsMH78+N2e48wzz4yf/exnccghh3RCRO03YcKEbr0eAAAAAAAAAAAAAAAA0D4KCCGHlZSUxNVXXx3XXnttHH744T0dTqeZ9cCCWFOWF3seMCg++qnDUvrKfrcw1izZGBER51w7NvqUFjX1rVq0Ll545M2IiDhq4gHxobF7p4ydfvvzUV/XEIP3LI3TPnd0St/cxxfH8gWN3+p4+qSjY9Cw0qa+tW9/EM/+5o2IiDj4hH3iyJP3Txk747/mRmV5dfTtXxxnXz0mpW/BMyvizRffiYiIkz5zWAzfb1BT3wfvV8TT016LiIgDjhweYz4+OmXsn+99LTa+VxH5BXlx/pdOTOl76+XVMX/W8oiIGHfuwbHvIXs09W2tqIk//vLliIgYcdDgGH/BoSljn/vfN+K95R9ERMS51x8fRSXNvwrefmNtvPTHxRERcczpo+KgY1O/zfLh2xq/LXPo3v1j4iVHpvS9+NibsXLhuoiI+NiVx0T/IX2b+t5dtjFmP7QwIiIOHT8yDhs/MmXsY794Kaoqa6Pf4D7x8X84NqXvtZnLYvHcNRERccrfHxF77DOgqW/Du+Ux874FERFx4DF7xbFnHJgy9ql75sWmdZVRWFwQ5/3jCSl9f3thVfz12bcjIuIj5x8Se48e2tRXsbkq/vTfr0RExD4HD40Tz0stzH3mwdfj/ZWbIyLikzeMi4LC/Ka+ZfPfjVeeWBoREcd97MAYddReTX11tfXx+x+/EBERw0YOiJMvPiJl3uf/sCjeeXN9RESc9YXjonRASVPf6sXrY870RRERcfhJ+8WHx+2bMvYPP30xaqvrYuAefeOMycek9L361NJYOu/diIg49bIjY8he/Zv61r2zOf7yq9cjImL0mBFx9KmjUsY+ftersWXj1ijpWxifuO74lL43ylbGwrKVEREx4aJDY69Rg5v6yjdUxhNT50VExMhD94gTPnFwythZDyyI9avLIyLiwq9+JKVvyatrYt7TyyIi4vhzRsd+hw1v6qupqo1HfvZSRETGHNFSfX1D5Lf4OVdzxMQt5TE00iUpR7RUsbk6SndokyMaZWOO2G7Du+UxZIe2bMwRzhGp1q8uj8pF67I+R/Tqc0SkW7+6PF5/8PWcyBG5do6QIxrl2jmiU3NEpFu/ujxWPLU0O3NEB84RmzdsjQGRmRzRSI5o1h054vz+qe/XIhpfb7Num5O9OaID54i2ZGOOcI7YuVzOEadVbonBO6ynYlNV/Gnb6yobc0RHzxFtycYc0Z5zRKbPg+rq6uP32+5bEnJES7U1dSl/YJmNOaI954jWPsfL5hzR0XNES+Ubt0b/HdqyMUfs7BwxenXm+5bNOSKi4+eIlhoaIvJa/JyNOaI954jWXnPZmiMiOn6OaGnrluros0NbtuWIXDxH5Np7jVz7PMJ7jUY+j2gkRzRrK0ds2VQV/SIzOaKZHNFIjmjUm3KEc0T7yBGNsjFHtEWOaCRHNHKOaLarOWJnsjFHtOcckenzoNqa+vjDttecHCFHRMgR2yXtHNFV7zV6GwWEkMOqqqriJz/5Sfz5z3+Of/qnf4pJkyZFnz47/tFR7tm6pSYqNlVFVUVNWl91ZW1UbKpq/KGhIaWvtqauqa+mui5tbMWmqqiva4g+/dL/4K1ma/O8DfWp89bXNTT11VbVpo2tLK9ujmkHtVXN89bXpc7bUN88b83W9Hm370N+QV5aX01181pra3ZYa0PzvNWV6fNWVdS0Hm9N/U73MCKidGD6hzIpe5i61KirbTFvhj2s2FwdVRU1KYe/pnmr6lrsYX1K3872cPu9KSopaHPeutrUeaMhWuxh+vOwqqK2XXtYW1Of1r+9r6oivXiqurLFvWlzD9PvTeXmqqipqsu81jaf323Pu3XbHqbtUTTey9b2sKHFHrb1/M4k9fnd1h6m35vUIFJ/zNUcURfpexCRrByRGl56pxwRTdfKthzR/Lj0+5aNOcI5IlVdXX1O5AjniFR1dfVRVZEebzbmiFw7R8gR0bS+XDpHdFWOaJq/rj5nckRb54iG+szr2x6jHNFIjmjULTlix2qDaHy9VWyqyokcsbM9bEs25gjniPbJ1RxRX5D+fq2hoSEqNmdxjtjBzs4RbcnGHNGec0RrnwclKUek2GHebMwR7TlHtHbfsjlHZNLWOaKlTJ/jZWOO2Nk5oq619wJZnCO2x5c6cds5oi3ZmCPac45o9bPzLM0RER0/R7SU6W1dtuWIXDxH5Np7jVz7PMJ7jW3z+jyi6TpyxLZ528gRO96PHfvkiEZyRCM5IprW11tyhHNE+8gRjbIxR7RFjmgkRzRzjtg2727kiLZkY45ozzliZ5+dyxFyxPZryRHJO0d01XuN3kYBISTAggUL4pprrolbb701pk2bFuPHj+/pkHZLn35FUTqwJEoy/AubxX0Lmw9MeamHucKigqa+ouL0X9ylA0ta/YVU1Kd53rz81HnzC/Ka+gpL0tNm3/7FKf+bElNJ87w7Hj7z8pvnLeqTPu/2fch0aC0qbl5rYdEOa81rnre4b/q8JaVFGQ+djXPl73QPt8eWFlPLPdwh5ILCFvNm2MPSAcVRUJgffTLsYVFJQYs9TD3U7mwP+/YvjpqquijMsJaW86YdlvOixR6mr7WktLBde1hYlH4I395XUpoeb3HfFvemzT1MX0/fASVRVFKX8XnY9vO77Xn79C+Outr6KMnwXCpq8fzecQ/zWuxhW8/vTFKf323tYeZ/hbc5iNQfczVHFGzJj8jwd+OSlCNSw0vvlCOi6VrZliOaH5fheZiFOcI5IlVBQX5O5AjniFQFBfk5kyNy7RwhR0TT+nLpHNFVOaJp/oL8nMkRbZ0j8vIzr297jHJEIzmiUU/kiIjG11tpv5KcyBE728O2ZGOOcI5on1zNEfmVeWmfK+S1eL3mQo7Y2TmiLdmYI9pzjmjt86Ak5YgUO8ybjTmiPeeI1u5bNueIjp4jWsr0OV425oidnSMKCjLft2zOEdvjS5247RzRlmzMEe05R7T62XmW5oiIjp8jWsr0ti7bckQuniNy7b1Grn0e4b3Gtnl9HtF0HTli27xt5Igd78eOfXJEIzmikRwRTevrLTnCOaJ95IhG2Zgj2iJHNJIjmjlHbJt3N3JEW7IxR7TnHLGzz87lCDli+7XkiOSdI7rqvUZvk9eQ6Z+HBLrElClT4pZbbklrb8/LsKKiIjZt2hSLFy+Ol19+OR588MF47rnn0h5XVFQUv/rVr+Kiiy7qlJh3pqysbLfGz58/P6655pqUttmzZ+d8ESTQze48M2Lli6ltI0+IuOrJnomnM1kb2cZ9y03uW25y36B7Jfk1l+S1kZuS/JxM8tqSLMn3zdpyk7XlJmvLTUleW0Sy12dtACSR3wEAbZMnc5P7Bt0rya+5JK8N6DZlZWUxYcKElLbeUr+ihBJyRGlpaZSWlsaIESPiox/9aNxwww3xl7/8Ja688spYsmRJ0+Nqamris5/9bMyaNSstsXWF3pAoAQAAAAAAAAAAAAAAIBd17PtqgaxyyimnxMyZM2PfffdNaa+trY3JkydHdXV1D0UGAAAAAAAAAAAAAAAA9DQFhJDj9ttvv7j11lvT2t9666144IEHeiAiAAAAAAAAAAAAAAAAIBsoIIQE+OxnPxvDhg1La586dWoPRAMAAAAAAAAAAAAAAABkAwWEkAD5+flx8sknp7U///zzUVVV1QMRAQAAAAAAAAAAAAAAAD1NASEkxMiRI9Patm7dGitWrOiBaAAAAAAAAAAAAAAAAICepoAQEmLAgAEZ29etW9fNkQAAAAAAAAAAAAAAAADZQAEhJMT69esztpeUlHRzJAAAAAAAAAAAAAAAAEA2UEAICfHmm29mbB8xYkQ3RwIAAAAAAAAAAAAAAABkAwWEkADl5eXx3HPPpbX369cv9txzzx6ICAAAAAAAAAAAAAAAAOhpCgghAX70ox/F1q1b09rPPvvsKCgo6IGIAAAAAAAAAAAAAAAAgJ6mgBBy3NNPPx3//M//nLHv4osv7uZoAAAAAAAAAAAAAAAAgGyhgBBy1JYtW+Jf//Vf45xzzonq6uq0/vHjx8dnPvOZHogMAAAAAAAAAAAAAAAAyAaFPR0AEDFnzpydPqaysjI2bdoUb731Vrz00kvxyCOPRHl5ecbHDhgwIO64447Iy8vr7FABAAAAAAAAAAAAAACAHKGAELLA+PHjO22ugQMHxowZM+Koo47qtDkBAAAAAAAAAAAAAACA3JPf0wEAneeUU06J559/vlMLEgEAAAAAAAAAAAAAAIDclNfQ0NDQ00FAbzFlypS45ZZbOnXOvLy8OOWUU+Kaa66JSy65pFPn7g5lZWUxYcKElLbZs2crggQAAAAAAAAAAAAAAKBT9Ob6lcKeDgBon+Li4hgwYEAMGjQoRowYEccee2wcd9xxceaZZ8aoUaN6OjwAAAAAAAAAAAAAAAAgyygghG40ZcqUmDJlSk+HAQAAAAAAAAAAAAAAAPQC+T0dAAAAAAAAAAAAAAAAAADQ+RQQAgAAAAAAAAAAAAAAAEACKSAEAAAAAAAAAAAAAAAAgARSQAgAAAAAAAAAAAAAAAAACaSAEAAAAAAAAAAAAAAAAAASSAEhAAAAAAAAAAAAAAAAACSQAkIAAAAAAAAAAAAAAAAASCAFhAAAAAAAAAAAAAAAAACQQAoIAQAAAAAAAAAAAAAAACCBFBACAAAAAAAAAAAAAAAAQAIpIAQAAAAAAAAAAAAAAACABFJACAAAAAAAAAAAAAAAAAAJpIAQAAAAAAAAAAAAAAAAABJIASEAAAAAAAAAAAAAAAAAJJACQgAAAAAAAAAAAAAAAABIIAWEAAAAAAAAAAAAAAAAAJBACggBAAAAAAAAAAAAAAAAIIEUEAIAAAAAAAAAAAAAAABAAikgBAAAAAAAAAAAAAAAAIAEUkAIAAAAAAAAAAAAAAAAAAmkgBAAAAAAAAAAAAAAAAAAEkgBIQAAAAAAAAAAAAAAAAAkkAJCAAAAAAAAAAAAAAAAAEggBYQAAAAAAAAAAAAAAAAAkEAKCAEAAAAAAAAAAAAAAAAggRQQAgAAAAAAAAAAAAAAAEACKSAEAAAAAAAAAAAAAAAAgARSQAgAAAAAAAAAAAAAAAAACaSAEAAAAAAAAAAAAAAAAAASSAEhAAAAAAAAAAAAAAAAACSQAkIAAAAAAAAAAAAAAAAASCAFhAAAAAAAAAAAAAAAAACQQAoIAQAAAAAAAAAAAAAAACCBFBACAAAAAAAAAAAAAAAAQAIpIAQAAAAAAAAAAAAAAACABFJACAAAAAAAAAAAAAAAAAAJpIAQAAAAAAAAAAAAAAAAABJIASEAAAAAAAAAAAAAAAAAJJACQgAAAAAAAAAAAAAAAABIIAWEAAAAAAAAAAAAAAAAAJBAhT0dAAAAbbjzzIiVL6a2jTwh4qoneyYeIDfJJbkp6fct6esj93hOkm2S/JxM8tog2yT59WZtucnacpO15a4kr8/ayDbuW25y38g2npO5yX3LTUm+b0leGwA75/cAAK3wDYSQhR5++OHIy8vL+N+MGTN6OjwAAAAAAAAAAAAAAAAgBygghCx01113tdo3derUbowEAAAAAAAAAAAAAAAAyFUKCCHLrFmzps1vGZw+fXqsX7++GyMCAAAAAAAAAAAAAAAAcpECQsgy06ZNi9ra2lb7q6qq4v777+/GiAAAAAAAAAAAAAAAAIBcpIAQsszUqVM75TEAAAAAAAAAAAAAAABA76aAELJIWVlZLFy4MKWtuLg48vNTX6pz586N1157rTtDAwAAAAAAAAAAAAAAAHKMAkLIInfddVda2/nnnx+nn356ux4LAAAAAAAAAAAAAAAAsJ0CQsgSFRUV8eCDD6a1T5o0KSZPnpzWft9990V1dXV3hAYAAAAAAAAAAAAAAADkIAWEkCV++9vfxqZNm1La9txzzzj77LPjoosuigEDBqT0vf/++/GHP/yhO0MEAAAAAAAAAAAAAAAAcogCQsgSU6dOTWu79NJLo7CwMEpLS+PTn/50u8YAAAAAAAAAAAAAAAAARCgghKywZMmSmDVrVlr75MmTM/7/7WbMmBGrV6/u0tgAAAAAAAAAAAAAAACA3KSAELLA3XffHQ0NDSltRx11VBx77LFNP59yyikxatSolMfU1dXFtGnTuiFCAAAAAAAAAAAAAAAAINcoIIQeVl9fH/fcc09a+47fOJiXlxeTJk1Ke9zdd9/dVaEBAAAAAAAAAAAAAAAAOUwBIfSwJ598MlasWJHSVlBQEJdddlnaYzMVEC5cuDBmz57dZfEBAAAAAAAAAAAAAAAAuUkBIfSwqVOnprV9/OMfjxEjRqS1jx49Ok466aR2zQEAAAAAAAAAAAAAAAD0boU9HQD0Zhs2bIjf/e53ae2TJ09udczkyZPj2WefTWn79a9/HbfffnuUlpZ2dog7VVZWtlvj58+f30mRAAAAAAAAAAAAAAAAAC0pIIQe9MADD8TWrVtT2gYNGhTnn39+q2MuvvjiuOGGG6KysrKpbfPmzfHb3/42Jk2a1GWxtmbChAndfk0AAAAAAAAAAAAAAABg5xQQQg+666670touvvji6NOnT6tjBg4cGBdccEE88MADKe1Tp07tkQLCrjDrgQWxpiwv9jxgUHz0U4el9JX9bmGsWbIxIiLOuXZs9CktaupbtWhdvPDImxERcdTEA+JDY/dOGTv99uejvq4hBu9ZGqd97uiUvrmPL47lC9ZGRMTpk46OQcOav81x7dsfxLO/eSMiIg4+YZ848uT9U8bO+K+5UVleHX37F8fZV49J6VvwzIp488V3IiLipM8cFsP3G9TU98H7FfH0tNciIuKAI4fHmI+PThn753tfi43vVUR+QV6c/6UTU/reenl1zJ+1PCIixp17cOx7yB5NfVsrauKPv3w5IiJGHDQ4xl9waMrY5/73jXhv+QcREXHu9cdHUUnzr4K331gbL/1xcUREHHP6qDjo2BEpYx++bU5ERAzdu39MvOTIlL4XH3szVi5cFxERH7vymOg/pG9T37vLNsbshxZGRMSh40fGYeNHpox97BcvRVVlbfQb3Cc+/g/HpvS9NnNZLJ67JiIiTvn7I2KPfQY09W14tzxm3rcgIiIOPGavOPaMA1PGPnXPvNi0rjIKiwvivH88IaXvby+sir8++3ZERHzk/ENi79FDm/oqNlfFn/77lYiI2OfgoXHieYekjH3mwdfj/ZWbIyLikzeMi4LC/Ka+ZfPfjVeeWBoREcd97MAYddReTX11tfXx+x+/EBERw0YOiJMvPiJl3uf/sCjeeXN9RESc9YXjonRASVPf6sXrY870RRERcfhJ+8WHx+2bMvYPP30xaqvrYuAefeOMycek9L361NJYOu/diIg49bIjY8he/Zv61r2zOf7yq9cjImL0mBFx9KmjUsY+ftersWXj1ijpWxifuO74lL43ylbGwrKVEREx4aJDY69Rg5v6yjdUxhNT50VExMhD94gTPnFwythZDyyI9avLIyLiwq9+JKVvyatrYt7TyyIi4vhzRsd+hw1v6qupqo1HfvZSRESvyRETt5TH0EgnRzSSIxrJEY16Y46I6Pg5Yrv1q8ujctE6OSKyOEdEuvWry+P1B19PRI7Ya3Xm33FyRDPvNRp1W46IdOtXl8eKp5ZmZ45wjkh8jqipqouiaF0u54jz+zdEfqRav7o8Zt02J3tzRK6dI+SIxOeI9p4jTqvcEoMjVcWmqvjTttdVNuaIjp4j2pKrOSLT50F1dfXx/9m77zCpyutx4Gd3WcpSBREUFRQ1YseCYkONit1YYk/sGjWJMeo3UaNiYpolaopRE0X9mUQTWzBqjA2wYAUbRLAhCiJIlb5lfn8YynBnd2cbO3v383ken4Rz5773vHdm3z1z956ZEf973tKwRqyqorwy6w+WLXWNqO46XiGvEXWtI1a1YO6S6LRarBDXiNrqiP7VvDct5DUiou51xKoymYiiVf5diGtEPnVEdT9zhbpGRNS9jljVkoXLYvW/IBfaGtES64imeq+x3NwZyVqsENeIllZHNNV7jeVmf7YgyifPLfg1oqXVEdaIlWqqIxbOXxodIzdrxEqFdj2isqIqSqJ61oivFOIaUZNCXCPyrSP2zyTXknkzF8Uzv3nJGuGaZURYI5ZLWx3hvcZXrBH5sUZ8xRrxFWvESq1ljVBHtF4aCKGZvPXWW/H6668n4vk0AZ588smJBsJRo0bFhx9+GBtvvHGj5dhcliwsj0Xzl8bSReWJbcsWV8Si+Uu/+kcmk7WtorxyxbbyZZWJfRfNXxpVlZlo3zH5h7fyJSvHzVRlj1tVmVmxrWJpRWLfxQuWrcxpNRVLV45bVZk9bqZq5bjlS5LjLj8PxSVFiW3ly1bOtaJ8tblmVo67bHFy3KWLyqvPt7yq1nMYEVHWpV1iW9Y5zJ5qVFasMm6Oc7joy2WxdFF5VvG3Ytyllaucw6qsbbWdw+XPTWm75KXaVcetrMgeNzKxyjlMvg6XLqrI6xxWlFclti/ftnRRh8S2ZYtXeW5qPIfJ52bxl0u/urk011xrfH3XPO6S/53DxDmKr57L6s5hZpVzWNPrO5fs13dN57B1rBGVkTwHEdaIFeNaI1bkaI34SmtbI5Yff3U1rRHLVVZWWSNa2BoR8dXztnRRMt+WuEZUVuaeozViJe81YsUc1vQasWL8yqoWs0aoI/43borWiMzqT9ZqWvQasXq3QXz187Zo/tIWsUa0xDrCGvG/cVO0RuRbR1SVJNeSTCYTi74s4DViNbXVETVpqWtEddeD0rRGZFlt3Ja6RlT3vBXyGpFLTXXEqjKr/1BFYa4RtdUR1b03LeQ1Ynl+2QPXvEbUpBDXiHzqiGqvnRfoGhFR9zpiVVU5pltoa0RLrCOa6r3GcrnW0UJcI1paHdFU7zVW5FZZ1SLWiJZWR1gjVhm3hjpi9edj9W3WiK8U2vWI2lgjYsXjC22NqEkhrhH51hGZjsm1ZPnr3xrhmuVXY1kjvho4XXWE9xqxIkdrRO2sEbFiftYIa8SqWtMaoY5onTQQQjMZPnx4Ita/f//Yfffda9133333jfXWWy+mTZu2IpbJZOLOO++Mn/70p42aZ3No37E0yrq0i3Y5PmGzbYc2Kwumouxirk1pyYptpW2Tv7jLurSr9hdSafuV4xYVZ49bXFK0Ylubdslls0Ontln/m5VTu5Xjrl58FhWvHLe0fXLc5echV9Fa2nblXNuUrjbXopXjtu2QHLddWWnOovOrsYprPYfLc0vktOo5XC3lkjarjJvjHJZ1bhslbYqjfY5zWNquZJVzmF3U1nYOO3RqG+VLK6NNjrmsOm6iWC6KVc5hcq7tytrkdQ7blCaL8OXb2pUl823bYZXnpsZzmJxPh87torRdZc7XYc2v75rHbd+pbVRWVEW7HK+l0lVe36ufw6JVzmFNr+9csl/fNZ3D1rFGlCwsjshxb5w14n/jWiNW5GiN+EprWyOWH391Na0Ry5WUFFsjWtgaEfHV85aWNaKkJPfvOGvESt5rxIo5rOk1YsX4JcUtZo1QR/xv3BStEUWrP1mrSdMaEfHVz1tZx3YtYo1oiXWENeJ/46Zojci3jiheXJSouYpW+XltCWtEbXVETVrqGlHd9aA0rRFZVhu3pa4R1T1vhbxG1LWOWFXR6j9UUZhrRG11RHXvTQt5jVieX/bANa8RNSnENSKfOqLaa+cFukZE1L2OWFVxjrethbZGtMQ6oqneayyXc64FuEa0tDqiqd5rrMitpDiqWsAa0dLqCGvEKuPWUEes/nysvs0a8ZVCux5RG2tErHh8oa0RNSnENSLfOqIokzxPxSXFUVbWzhrhmuX/xrJGfDVwuuoI7zViRY7WiNpZI2LF/KwR1ohVtaY1Qh3ROhVlcn08JNCkysvLY7311osvvvgiKz5s2LC48sor8xrj//7v/+Laa6/Nim244Ybx0UcfRXGuvyA1kTFjxjRo/7fffjvOPvvsrNiLL74YgwcPbtC4AKnx530jPn01O7b+ThFnPNU8+QAtk7WkZUr785b2+dHyeE1SaNL8mkzz3KDQpPnnzdxaJnNrmcyt5Urz/MyNQuN5a5k8bxQar8mWyfPWMqX5eUvz3ACond8DADUaM2ZM7Lrrrlmx1tK/ooUSmsEjjzySaB4sKiqKb3/723mPcfLJJycaCKdMmRJPP/107Lfffo2SZz5aw0IJAAAAAAAAAAAAAAAALdGa+5oyYIU77rgjEdtjjz1io402ynuMLbfcMnbYYYdEfPjw4Q3KDQAAAAAAAAAAAAAAAEgHDYSwhn322Wfx73//OxGvy7cPLnfyyScnYg899FDMnTu3PqkBAAAAAAAAAAAAAAAAKaKBENawu+++OyorK7NiHTp0iG9+85t1Huv444+P0tLSrNiSJUvib3/7W4NyBAAAAAAAAAAAAAAAAFq+Ns2dALQ2w4cPT8R22mmnmDBhQr3G23777ePll19OHOOcc86p13gAAAAAAAAAAAAAAABAOmgghDXoxRdfjIkTJybio0ePjsGDBzfacV599dUYP358bLnllo02JgAAAAAAAAAAAAAAANCyFDd3AtCa3HHHHak8FgAAAAAAAAAAAAAAAFB4NBDCGrJo0aL4+9//vsaOd88990R5efkaOx4AAAAAAAAAAAAAAABQWDQQwhryj3/8I7788ss1drwZM2bEo48+usaOBwAAAAAAAAAAAAAAABQWDYSwhgwfPjwRO+CAAyKTyTTKf4ccckhexwQAAAAAAAAAAAAAAABaBw2EsAZ88MEHMXr06ET8hBNOaLRjHH/88YnYY489Fp9//nmjHQMAAAAAAAAAAAAAAABoOTQQwhowfPjwyGQyWbEOHTrEEUcc0WjHOPzww6Njx45ZsYqKivh//+//NdoxAAAAAAAAAAAAAAAAgJZDAyE0saqqqrj77rsT8UMPPTQ6derUaMfp2LFjHHbYYYn48OHDG+0YAAAAAAAAAAAAAAAAQMuhgRCa2JNPPhmffPJJIn7CCSc0+rFyjTlhwoR4+eWXG/1YAAAAAAAAAAAAAAAAQGHTQAhNLNc3AK611lpx4IEHNvqxhg4dGj169MgrBwAAAAAAAAAAAAAAACDdNBBCE5ozZ048/PDDifhRRx0Vbdu2bfTjlZaWxtFHH52I33vvvbF48eJGPx4AAAAAAAAAAAAAAABQuIoymUymuZOAtPr9738f3/ve9xLxZ555Jvbee+8mOebo0aNjyJAhifg999wTJ554YpMcsyHGjBkTu+66a1bsxRdfjMGDBzdTRgAAAAAAAAAAAAAAAKRJa+5f8Q2E0ISGDx+eiPXp0ydng19j2WOPPWKDDTbIKxcAAAAAAAAAAAAAAAAgvTQQQhN56623YuzYsYn4scceG8XFTfejV1RUFMcdd1wi/swzz8THH3/cZMcFAAAAAAAAAAAAAAAACkub5k4A0mr+/Plx5ZVXJuInnnhikx/77LPPjrKyskT8iy++iL59+zb58QEAAAAAAAAAAAAAAIDmp4EQmsjuu+8eu+++e7Mcu3///jFs2LBmOTYAAAAAAAAAAAAAAABQGIqbOwEAAAAAAAAAAAAAAAAAoPFpIAQAAAAAAAAAAAAAAACAFNJACAAAAAAAAAAAAAAAAAAppIEQAAAAAAAAAAAAAAAAAFJIAyEAAAAAAAAAAAAAAAAApJAGQgAAAAAAAAAAAAAAAABIIQ2EAAAAAAAAAAAAAAAAAJBCGggBAAAAAAAAAAAAAAAAIIU0EAIAAAAAAAAAAAAAAABACmkgBAAAAAAAAAAAAAAAAIAU0kAIAAAAAAAAAAAAAAAAACmkgRAAAAAAAAAAAAAAAAAAUkgDIQAAAAAAAAAAAAAAAACkkAZCAAAAAAAAAAAAAAAAAEghDYQAAAAAAAAAAAAAAAAAkEIaCAEAAAAAAAAAAAAAAAAghTQQAgAAAAAAAAAAAAAAAEAKaSAEAAAAAAAAAAAAAAAAgBTSQAgAAAAAAAAAAAAAAAAAKaSBEAAAAAAAAAAAAAAAAABSSAMhAAAAAAAAAAAAAAAAAKSQBkIAAAAAAAAAAAAAAAAASCENhAAAAAAAAAAAAAAAAACQQhoIAQAAAAAAAAAAAAAAACCFNBACAAAAAAAAAAAAAAAAQAppIAQAAAAAAAAAAAAAAACAFNJACAAAAAAAAAAAAAAAAAAppIEQAAAAAAAAAAAAAAAAAFJIAyEAAAAAAAAAAAAAAAAApJAGQgAAAAAAAAAAAAAAAABIIQ2EAAAAAAAAAAAAAAAAAJBCGggBAAAAAAAAAAAAAAAAIIU0EAIAAAAAAAAAAAAAAABACmkgBAAAAAAAAAAAAAAAAIAU0kAIAAAAAAAAAAAAAAAAACmkgRAAAAAAAAAAAAAAAAAAUkgDIQAAAAAAAAAAAAAAAACkkAZCAAAAAAAAAAAAAAAAAEihNs2dADS3OXPmxIQJE+LDDz+MWbNmxcKFC6OkpCQ6duwYvXr1io033ji23HLL6NChQ3OnCkA1jrj5hRg3ZW5WbOCG3eKhc3drnoQakblRaDxvLVOanzdza7nSPL80zy3N0vy8pXluaZbm583cWiZza5nMrWUyt5bJ3FqmNM8tIt3zM7eWydwoNJ43Ck2aX5PmRqFJ8/NmbhSatD9vaZ5fmueWZml+3tI8N4A1QQMhrdKbb74Zf/3rX+Oxxx6L8ePHRyaTqfHxbdu2jR122CGOOOKIOO6442KDDTZolDz22muvGDVqVN6PLyoqik6dOkW3bt2iW7duMWDAgNhpp51i8ODBseuuu0ZRUVGj5AUAAAAAAAAAAAAAAAC0fBoIaVVGjRoVV111VTz77LN12m/ZsmUxZsyYGDNmTFxyySVx/PHHx7Bhw6J///5NlGlumUwmvvzyy/jyyy/jk08+ibfffjv+/ve/R0TEpptuGmeddVace+65UVZWtkbzAgAAAAAAAAAAAAAAAApPcXMnAGvC3Llz4+STT4699tqrzs2Dq6usrIx77rknttpqq/jlL38ZVVVVjZRlw7z33ntx8cUXx8CBA+Pll19u7nQAAAAAAAAAAAAAAACAZqaBkNQbP3587LTTTnH33XfX+Lhu3brFDjvsEPvss08MGTIkttlmmxq/yW/JkiVx6aWXxsEHHxxz585t5Kzrb9KkSbH77rvHo48+2typAAAAAAAAAAAAAAAAAM2oTXMnAE1p3Lhxse+++8bs2bNzbt90003jrLPOikMPPTS+9rWvJbZXVVXF2LFj4/7774877rgjZs6cmXjMv//979h3333jySefjLXWWqvBOQ8cODBuvvnmnNsymUzMmzcvPvvssxgzZkw8/PDDOXOqqKiIY445JkaNGhU77rhjg3MCAAAAAAAAAAAAAAAAWh4NhKTWhx9+GPvtt1/O5sFOnTrFtddeG2eeeWaUlJRUO0ZxcXHsuOOOseOOO8Zll10WP/3pT+M3v/lNVFVVZT3u9ddfj4MPPjhGjhwZbdu2bVDeXbp0iV122aXWx5166qlx0003xQ033BBXXnllVFRUZG1ftGhRnHPOOfHKK69EUVFRg3ICAAAAAAAAAAAAAAAAWp7i5k4AmsLixYvj8MMPj1mzZiW2bbzxxvH666/Hd77znRqbB1fXuXPnuPbaa+PRRx+Njh07JraPGTMmzjvvvAblXVcdOnSISy+9NB5++OGcc3nttdfigQceWKM5AQAAAAAAAAAAAAAAAIVBAyGpdPnll8c777yTiG+44Ybx3HPPxWabbVbvsQ844IB49NFHo127doltf/7zn+Oxxx6r99j1dfDBB8cll1ySc9tf/vKXNZwNAAAAAAAAAAAAAAAAUAg0EJI6EyZMiBtvvDERLykpiQcffDDWW2+9Bh9jyJAhcf311+fcdt5558WyZcsafIy6uuiii6Jz586J+LPPPhuVlZVrPB8AAAAAAAAAAAAAAACgeWkgJHWuvPLKnA1zF1xwQeywww6Ndpxzzjkndtlll0R88uTJcfvttzfacfLVtWvX2GuvvRLxefPmxbvvvrvG8wEAAAAAAAAAAAAAAACalwZCUuXjjz+OBx98MBFff/3146qrrmrUYxUXF8ett94aRUVFiW25vgFxTdhxxx1zxmfMmLGGMwEAAAAAAAAAAAAAAACamwZCUmX48OFRVVWViJ9xxhlRVlbW6MfbZpttcn7r36RJk2LUqFGNfrza9OzZM2f8iy++WMOZAAAAAAAAAAAAAAAAAM1NAyGp8tBDDyVixcXFceqppzbZMU8//fSc8YcffrjJjlmdTCazxo8JAAAAAAAAAAAAAAAAFCYNhKTGtGnT4q233krE99hjj9hwww2b7LhHHXVUtG/fPhH/97//3WTHrE513zS49tprr+FMAAAAAAAAAAAAAAAAgOamgZDUePnll3PGBw8e3KTHbd++fWy77baJ+MSJE2PevHlNeuzVvfrqqznjPXv2XKN5AAAAAAAAAAAAAAAAAM2vTXMnAI3ljTfeyBnfcccdm/zYO+64Y6KBMZPJxBtvvBFDhgxp8uNHRMybNy9GjhyZiHfp0iU233zzJjvumDFjGrT/22+/3UiZAAAAAAAAAAAAAAAAAKvSQEhqfPDBBznj22+/fZMfe4cddsgZ/+CDD9ZYA+F1110XCxYsSMT32muvaNOm6X7Ud9111yYbGwAAAAAAAAAAAAAAAKg/DYSkxtSpU3PGe/Xq1eTHXmeddXLGP/300yY/dkTEY489Fr/85S9zbjvhhBPWSA6NadTf3onpY4pinb5dY7ejBmRtG/PwuzH9w7kREXHgd3aI9mWlK7ZNnTQrXvnXexERsfWQvrHJDutm7fvPm16OqspMdFunLPY+aZusbWP/80F8/M7MiIjY59vbRNe1y1Zsm/nJvHj+H/+NiIhNd1ovttpjw6x9/33b2Fi8YFl06NQ2Djgru2H1neemxHuvTouIiN2/OSB6btB1xbZ5XyyKZ+5+KyIi+m7VM7bfv3/Wvs/e81bMnbEoikuK4vDzd87a9v7rn8Xboz6OiIhBh2wafTbrsWLbkkXl8fgtr0dERO+Nu8Xgb2R/A+ULD/w3Znw8LyIiDjlvxyhtt/JXwSf/nRmvPf5VM+62+/SLjbfrnbXvQ795KSIiuq/bKYYcv1XWtlcfey8+fXdWRETsd+q20WmtDiu2fT55brz44LsREbH54PVjwOD1s/Z97I+vxdLFFdGxW/vY/7Ttsra9NXJyfDB2ekRE7HncltFjvc4rts35fEGM/Ms7ERGx0ba9Yruvb5S179N3vRnzZy2ONm1L4tDv7pS1beIrU2PC859ERMQuh28W6/bvvmLboi+XxhN/GhcREett2j12PnSzrH2f+/v4+OLTLyMi4rDvD4qSNsUrtk1++/MY9+RHERExcL+Not/WK9egyoqqGPHbVyIiYu31O8cex2yZNe7Lj0yKae/NjoiIoWcOjLLO7VZs++yD2fHSPydFRMQWu28QXxvUJ2vfR37/alQsq4wuPTrE10/eNmvbG09/FB+9+XlEROx14laxVq9OK7bNmvZljL53fERE9N++d2yzV7+sff9zxxuxcO6SaNehTRx0TvY3uv53zKfx7piv1rldj9w8evXrtmLbgjmL48nhb0ZExPqb94idDto0a99Rf3snZn/2VdPzET/cJWvbh29MjzefmRwRETse2D82GNBzxbbypRXxrz+8FhGRc41YVVVlJuvfLXWNmD072Rweka41YlWLv1yWiFkjvlKIa8Ryc6cvTMQKcY1QR2SbPW1BTJ00q+DXiNrqiFyvv+Va+hqRy+xpC+K5v49vEWtEbXXE7Gm5f8elbY1Ybva0BTHvi0UFv0a0tDqiMd9r5DJ72oJ44+mPCnKNqEsdsWDOkpzziyjcNUIdEVGxtDJq0pLXiEzb7PdrEV/9vD30m5cKdo2oSx1Rk0JcI/KtI5ZUJN+vzZn+1fOWhjWiJoW4RuRbR8ydl6yXF81fuuLnqhDXiLrWETUpxDUinzoi1/WgqsrMiuetENeIutYRq6ooz/6dV4hrRD51RHXX8Qp5jahrHbGqhXOTNWYhrhG11RHVvTct5DUiou51RJbVSrFCXCPyqSOq+5kr1DUiou51xKqWLChPxAptjcinjqjuZ65Q14j61hErzsmMZC1WiGtES6sjmuq9xnKzpy2IzyfPLfg1oqXVES3xvUZzXI9YNG9pVKelrxG5LL8e1BLWiJrqiKqKqpzzW84a8ZVCXCNqUohrRL51xKKlybVk3sxF8dBvXirYNaIudURtCm2NUEfkpxDXiHzriKWVyfdry3/HFeIaUdc6oiaFuEa0tDqiqdaI2hTiGpFPHZHrelBledWK38uFuEa0tDqiJb7XsEa0jjqiqd5rtDYaCEmN2bNnJ2KlpaVRVlaW49GNq1u3bjnjc+bMadLjLl68OG666aa4/PLLo7IyeVPZdtttF8ccc0yT5tAUliwsj0Xzl8bSRck3VssWV8Si+f+7yJHJ/gtnRXnlim3ly5LnY9H8pVFVmYn2HZN/eCtfsnLcTFX2uFWVmRXbKpZWJPZdvGDZypxWU7F05birNzNlqlaOW74kOe7y81BcUpTMd9nKua5+c0VkVo67bHFy3KWLyqvPt7yq1nMYEVHWJXlRJuscrvbH58qKVcbNcQ4Xfbksli4qzyr+Voy7tHKVc5h90bW2c7j8uSltV1LjuJWrX8zNxCrnMPk6XLqoIq9zWFGevEi8fNvSRcnmqWWLV3luajyHyedm8ZdLo3xpZe651vj6rnncJf87h4lzFF89l9Wdw8wq57Cm13cu2a/vms5h8rmpSUtdI1Z/3S+XpjUiK72q5EZrRKw4VqGtEas+LjFuAa4R6ohsVZVVLWKNqK2OqG6d/Orx6Vojls9j6aJkvoW4RtRWR1T33KVtjViuqrKqRawRLa2OaKr3GstVVVa1mDWipjoiV421XKGuEeqIxHKe0KLXiLWTr6flr5mWsEbUdg5rUohrRL51RFX75Kty+e+yNKwRtSm0NSLfOmL1NeCrwWKV13cBrhGrqa2OqEkhrhH51BHV1SaFvEbUtY7Istq4hbhG5FNHVPe8FfIakUtNdcSqctWYhbhG1FZHVPe8FfIasTy/7IFrXiNqUohrRD51RLXXzgt0jYioex2RnV+Oa+cFtkbkU0dU97wV6hpR3zpiuVzraCGuES2tjmiq9xqrjtES1oiWVke0xPcazXE9Itd6v2JbytaIiFV+ZlvAGlFjHZFzdquMa41Y8fhCWyNqUohrRL51RFVprut4VS1qjaipjqhNwa0R6oi8FOIakW8dkSmr/meuENeIutYRNSrANaLF1RFNuEbUpBDXiHzqiNqunRfiGtHS6og0vNewRvxv3JTVEU31XqO10UBIaixevDgR69q1a45HNr7qjpMrp9rMnz8/XnrppZzbMplMzJ8/P6ZPnx4vvvhiPPTQQzFz5sycj23fvn3cfPPNUVRU/U3jhap9x9Io69Iu2uX4hM22HdqsLJhWm1ub0pIV20rbJn9xl3VpV+0vpNL2K8ctKs4et7ikaMW2Nu2Sy2aHTm2z/jcrp3Yrx129+CwqXjluafvkuMvPQ66itbTtyrm2KV1trkUrx23bITluu7LSnEXnV2MV13oOl+eWyGnVc7hayiVtVhk3xzks69w2StoUR/sc57C0Xckq5zC7qK3tHHbo1DbKl1ZGmxxzWXXcRLFcFKucw+Rc25W1yesctilNFuHLt7UrS+bbtsMqz02N5zA5nw6d20Vpu8qcr8OaX981j9u+U9uorKiKdjleS6WrvL5XP4dFq5zDml7fuWS/vms6h9XfoJ9LS10jimcvicjxpiFNa0RWesXJjdaIWHGsQlsjVn1cYtwCXCPUEdmKS4pbxBpRWx1RXFIckePDNL56fLrWiOXzaClrRG11RHFJcc7fcWlbI5YrLiluEWtES6sjmuq9xnLFJcUtZo2oqY7IVWMtV6hrhDoisZwntOw1InlhfvlrpiWsEbWdw5oU4hqRbx1RXJG81rn8d1ka1ojaFNoakW8dUTxvafJHbpXzVJhrRLba6oiaFOIakU8dUd31oEJeI+paR2RZbdxCXCPyqSOqe94KeY2oax2xqlw1ZiGuEbXVEdW9Ny3kNWJ5ftkD17xG1KQQ14h86ohqr50X6BoRUfc6Iju/HNfOC2yNyKeOqO5nrlDXiPrWEcvlXA8LcI1oaXVEU73XWHWMlrBGtLQ6oiW+12iO6xE13ePT4teIRcn9V/zMtoA1osY6Ijm17HGtESseX2hrRE0KcY3It44oznHTenFJcZR1ble4a8RqaqojalNwa4Q6Ii+FuEbkW0cUVS5JbF/+eirENaKudUSNCnCNaHF1RBOuETUpxDUinzqitmvnhbhGtLQ6okW+11iNNeJ/46asjmiq9xqtTVGmpo8ughakf//+8eGHH2bF+vTpE59++mmTH/u9996LzTbbLBE/7bTT4vbbb692v7322itGjRrV6PkUFxfH/fffH0cccUSjj726MWPGNGj/t99+O84+++ys2IsvvhiDBw9u0LhA63LEzS/EuClzs2IDN+wWD527W/Mk1IjMjULjeWuZ0vy8mVvLleb5pXluaZbm5y3Nc0uzND9v5tYymVvLZG4tk7m1TObWMqV5bhHpnp+5tUzmRqHxvFFo0vyaNDcKTZqfN3Oj0KT9eUvz/NI8tzRL8/OW5rkBa86YMWNi1113zYq1lv4VLZSkRrt2ye7p+fPnr5FjV3ecDh2SX4vb1DbaaKO48847Y88991wjx2sNCyUAAAAAAAAAAAAAAAC0RBoISY2OHTsmYgsWLIjKysooKanj12rX0dy5c/POqalstNFGccYZZ8T3v//96NSp0xo7LgAAAAAAAAAAAAAAAFCYNBCSGr17907EMplMzJs3L7p3796kx543b17eOTVUp06domvXrtGtW7fYfPPNY8cdd4xdd9019thjjygqKmr04wEAAAAAAAAAAAAAAAAtkwZCUmODDTbIGX/vvfdi5513btJjT5o0KWe8upxqMmTIkBg5cmQDMwIAAAAAAAAAAAAAAABau+LmTgAay5Zbbpkz/uqrrzb5sas7RnU5AQAAAAAAAAAAAAAAADQ1DYSkxvbbb58z/tprrzX5sXMdo2PHjvG1r32tyY8NAAAAAAAAAAAAAAAAkIsGQlJjhx12iM6dOyfiTz31VFRWVjbZcSdOnBhTpkxJxIcMGRLFxX7EAAAAAAAAAAAAAAAAgOahu4nUaNu2bey7776J+NSpU+Pf//53kx33z3/+c874gQce2GTHBAAAAAAAAAAAAAAAAKiNBkJS5cQTT8wZr67Jr6HKy8vj7rvvTsTbtm0bxx57bJMcEwAAAAAAAAAAAAAAACAfGghJlcMOOyx69+6diI8YMSLGjBnT6Me74YYbYsaMGYn4EUccET179mz04wEAAAAAAAAAAAAAAADkSwMhqVJaWho/+tGPEvGqqqo488wzo7y8vNGO9dFHH8VVV12ViBcVFcVPfvKTRjsOAAAAAAAAAAAAAAAAQH1oICR1zjnnnNhkk00S8fHjx8dll13WKMcoLy+PU045JRYtWpTYdvLJJ8dWW23VKMcBAAAAAAAAAAAAAAAAqC8NhKROu3bt4s9//nMUFRUltl177bVx/fXXN2j88vLy+Na3vhWjR49ObOvdu3f85je/adD4AAAAAAAAAAAAAAAAAI1BAyGpNGTIkLjyyitzbrvooovivPPOiyVLltR53OnTp8eBBx4Y9913X2JbaWlp3HvvvbHWWmvVeVwAAAAAAAAAAAAAAACAxqaBkNS64oor4qSTTsq57eabb46tttoq7rnnnli2bFmtY82dOzeuvfba2GKLLeLpp59ObC8qKopbbrklhgwZ0uC8AQAAAAAAAAAAAAAAABpDm+ZOAJpKUVFR3HXXXdGmTZu48847E9s/+OCD+Na3vhUXXHBBDB06NHbeeefo379/dOnSJaqqqmL27NkxadKkeP755+Opp56KxYsX5zxOSUlJ3HrrrXHaaac18YwAAAAAAAAAAAAAAAAA8leUyWQyzZ0ENLXrr78+LrnkkigvL2/UcXv27Bn33Xdf7L333vXaf6+99opRo0ZlxYYMGRIjR45shOxahjFjxsSuu+6aFXvxxRdj8ODBzZQRAAAAAAAAAAAAAAAAadKa+1eKmzsBWBMuvPDCeP3112P33XdvlPGKi4vjlFNOif/+97/1bh4EAAAAAAAAAAAAAAAAaEoaCGk1tt5663juuefiqaeeikMPPTRKS0vrPEbXrl3jzDPPjAkTJsTw4cOjR48eTZApAAAAAAAAAAAAAAAAQMO1ae4EYE37+te/Hl//+tdj9uzZ8eSTT8YLL7wQ77zzTnz00Ucxe/bsWLRoURQVFUXHjh2jV69e0b9//9huu+1ijz32iL333jvatWvXaLncfPPNMX/+/KxYly5dGm18AAAAAAAAAAAAAAAAoPXSQEir1b179zj22GPj2GOPbbYctthii2Y7NgAAAAAAAAAAAAAAAJBuxc2dAAAAAAAAAAAAAAAAAADQ+DQQAgAAAAAAAAAAAAAAAEAKaSAEAAAAAAAAAAAAAAAAgBTSQAgAAAAAAAAAAAAAAAAAKaSBEAAAAAAAAAAAAAAAAABSSAMhAAAAAAAAAAAAAAAAAKSQBkIAAAAAAAAAAAAAAAAASCENhAAAAAAAAAAAAAAAAACQQhoIAQAAAAAAAAAAAAAAACCFNBACAAAAAAAAAAAAAAAAQAppIAQAAAAAAAAAAAAAAACAFNJACAAAAAAAAAAAAAAAAAAppIEQAAAAAAAAAAAAAAAAAFJIAyEAAAAAAAAAAAAAAAAApJAGQgAAAAAAAAAAAAAAAABIIQ2EAAAAAAAAAAAAAAAAAJBCGggBAAAAAAAAAAAAAAAAIIU0EAIAAAAAAAAAAAAAAABACmkgBAAAAAAAAAAAAAAAAIAU0kAIAAAAAAAAAAAAAAAAACmkgRAAAAAAAAAAAAAAAAAAUkgDIQAAAAAAAAAAAAAAAACkkAZCAAAAAAAAAAAAAAAAAEghDYQAAAAAAAAAAAAAAAAAkEIaCAEAAAAAAAAAAAAAAAAghTQQAgAAAAAAAAAAAAAAAEAKaSAEAAAAAAAAAAAAAAAAgBTSQAgAAAAAAAAAAAAAAAAAKaSBEAAAAAAAAAAAAAAAAABSSAMhAAAAAAAAAAAAAAAAAKSQBkIAAAAAAAAAAAAAAAAASCENhAAAAAAAAAAAAAAAAACQQhoIAQAAAAAAAAAAAAAAACCFNBACAAAAAAAAAAAAAAAAQAppIAQAAAAAAAAAAAAAAACAFNJACAAAAAAAAAAAAAAAAAAppIEQAAAAAAAAAAAAAAAAAFJIAyEAAAAAAAAAAAAAAAAApJAGQgAAAAAAAAAAAAAAAABIIQ2EAAAAAAAAAAAAAAAAAJBCGggBAAAAAAAAAAAAAAAAIIU0EAIAAAAAAAAAAAAAAABACmkgBAAAAAAAAAAAAAAAAIAU0kAIAAAAAAAAAAAAAAAAACmkgRAAAAAAAAAAAAAAAAAAUkgDIQAAAAAAAAAAAAAAAACkkAZCAAAAAAAAAAAAAAAAAEghDYQAAAAAAAAAAAAAAAAAkEIaCAEAAAAAAAAAAAAAAAAghTQQAgAAAAAAAAAAAAAAAEAKaSAEAAAAAAAAAAAAAAAAgBTSQAgAAAAAAAAAAAAAAAAAKaSBEAAAAAAAAAAAAAAAAABSSAMhAAAAAAAAAAAAAAAAAKSQBkIAAAAAAAAAAAAAAAAASKE2zZ0A0LotXLgwEXv77bebIRMAAAAAAAAAAAAAAADSKFevSq6eljTSQAg0qw8//DARO/vss5shEwAAAAAAAAAAAAAAAFqLXD0taVTc3AkAAAAAAAAAAAAAAAAAAI1PAyEAAAAAAAAAAAAAAAAApJAGQgAAAAAAAAAAAAAAAABIoaJMJpNp7iSA1mvatGnxr3/9Kyu28cYbR8eOHZspI6Alevvtt+Pss8/Oit16662x9dZbN1NGAEBrpjYBAAqFugQAKCRqEwCgUKhLAIBCojaBNWfhwoXx4YcfZsUOOeSQWG+99ZopozWnTXMnALRu6623Xpx11lnNnQaQQltvvXUMHjy4udMAAIgItQkAUDjUJQBAIVGbAACFQl0CABQStQnQ2IqbOwEAAAAAAAAAAAAAAAAAoPFpIAQAAAAAAAAAAAAAAACAFNJACAAAAAAAAAAAAAAAAAAppIEQAAAAAAAAAAAAAAAAAFJIAyEAAAAAAAAAAAAAAAAApJAGQgAAAAAAAAAAAAAAAABIIQ2EAAAAAAAAAAAAAAAAAJBCGggBAAAAAAAAAAAAAAAAIIU0EAIAAAAAAAAAAAAAAABACmkgBAAAAAAAAAAAAAAAAIAU0kAIAAAAAAAAAAAAAAAAACmkgRAAAAAAAAAAAAAAAAAAUkgDIQAAAAAAAAAAAAAAAACkkAZCAAAAAAAAAAAAAAAAAEghDYQAAAAAAAAAAAAAAAAAkEJFmUwm09xJAAAAAAAAAAAAAAAAAACNyzcQAgAAAAAAAAAAAAAAAEAKaSAEAAAAAAAAAAAAAAAAgBTSQAgAAAAAAAAAAAAAAAAAKaSBEAAAAAAAAAAAAAAAAABSSAMhAAAAAAAAAAAAAAAAAKSQBkIAAAAAAAAAAAAAAAAASCENhAAAAAAAAAAAAAAAAACQQhoIAQAAAAAAAAAAAAAAACCFNBACAAAAAAAAAAAAAAAAQAppIAQAAAAAAAAAAAAAAACAFNJACAAAAAAAAAAAAAAAAAAppIEQAAAAAAAAAAAAAAAAAFJIAyEAAAAAAAAAAAAAAAAApJAGQgAAAAAAAAAAAAAAAABIIQ2EAAAAAAAAAAAAAAAAAJBCGggBAAAAAAAAAAAAAAAAIIU0EAIAAAAAAAAAAAAAAABACmkgBAAAAAAAAAAAAAAAAIAU0kAIAAAAAAAAAAAAAAAAACmkgRAAAAAAAAAAAAAAAAAAUkgDIQAAAAAAAAAAAAAAAACkUJvmTgAAaDwTJkyId955J6ZNmxYLFiyI9u3bR8+ePWPAgAExcODAKC0tbe4U81ZVVRVvvvlmTJgwIT7//PNYtGhRlJWVRa9evWLLLbeMbbbZJoqLW+dnIcybNy/Gjh0bkyZNirlz50ZlZWV06dIlNtpoo9huu+2iT58+zZ0iAESE2iTtPvnkkxg/fnxMmzYt5s6dG4sXL46uXbvGWmutFeuuu27suOOO0aVLl+ZOEwAiQl0CABQWtUnrM2XKlBg/fnxMnjw55s+fHxUVFdGxY8fo3r17bLTRRrHZZptFr169mjtNAFohdUn6VVZWxn//+9+YMGFCzJkzJ+bOnRuZTCa6du0a3bp1i8022yy23nrraNu2bXOnCgBqkzWgoqIi3n777Zg4cWJ8/vnnsWDBgmjTpk107Ngx1ltvvdh4441j8803j/bt2zdZDu6BheahgRAAWrhPPvkkfvvb38Zf//rXmDZtWrWP69y5cxx22GHx/e9/PwYNGrQGM6yb//73v3HTTTfF/fffH7Nmzar2cT169IhvfvObcf7558fmm2/e4OP269cvPv744waPs6qTTz457rzzzkYZK5PJxIMPPhg333xzjB49OioqKqp97NZbbx2nn356nH766dGpU6dGOT4A5Ettks7apKqqKl599dV49tln49lnn42XXnop5s+fX+M+xcXFMWDAgDjyyCPj7LPPdoEXgDVOXZLOuqSunn766dh3332r3Z7JZNZIHgCgNml9tcn48ePjz3/+c/zzn/+Mjz76qNbHb7jhhjF48OA44IAD4sADD9RQCECTUZekvy4pLy+PESNGxO233x6jR4+OhQsX1vj4tm3bxqBBg+LUU0+NY489Njp27NjgHAAgX2qTxqlNalJRURGPPPJI3HXXXfH000/HggULanx8aWlpbL311rHnnnvGwQcfHHvuuWeDP2zAPbBQADIAQItUWVmZ+fnPf57p0KFDJiLq9N+3vvWtzNy5c5t7ClmWLFmS+cEPfpApKSmp01xKSkoyF1xwQWbJkiUNOn7fvn3rfB5r++/kk09ulHMzfvz4zKBBg+p8/D59+mRGjBjRKDkAQG3UJumrTaqqqjIjR47MnHvuuZlevXo16Nht2rTJnHLKKZnZs2c36LwAQD7UJemrS+pr4cKFmY033rjGXACgqalNWl9t8uGHH2aOPvroBuU0ZMiQRs0JADIZdUlrqUseffTRzIYbbljvHNZaa63MHXfc0eA8AKA2apPGrU2q88ADD2Q23XTTBtUow4cPb1AO7oGFwtD6vo8dAFJg8eLFcdhhh8Vll10WixcvrvP+/+///b/Yaaed8vq00zVh1qxZsccee8SNN94YlZWVddq3srIybrjhhthzzz1r/LSWluqxxx6LnXfeOV555ZU67zt16tQ4/PDD42c/+1kTZAYAK6lNVkpTbTJ16tTYa6+94uabb47PP/+8QWNVVFTEnXfeGVtttVU8++yzjZQhACSpS1ZKU11SXz/5yU/iww8/bO40AGjF1CYrtZba5O67745tttkm7r///uZOBQCyqEtWSmtdkslk4nvf+14cfPDBMWXKlHqPM2fOnDjttNPi8MMPj6VLlzZihgCwktpkpaaqTRYsWBAnnnhiHHXUUfHee+812rh15R5YKBxtmjsBAKBuKisr46ijjorHH3885/bS0tLYYostYu21144vv/wyJkyYkPPrxt97773YZ5994sUXX4x11123qdOu1oIFC2K//faLcePG5dzeoUOH2GKLLaJbt24xZ86cmDBhQixZsiTxuFdeeSX233//GD16dHTs2LGp014jnn322TjyyCOrvSDbu3fv2HTTTaNNmzYxZcqU+OCDDxKPyWQyccUVV0RpaWn8+Mc/buqUAWiF1CatpzbJpbS0NHr37h09e/aMbt26xbx582Ly5MnVXtSeNm1aHHzwwfHoo4/G3nvvvYazBSDt1CWtuy5Z3SuvvBI33XRTc6cBQCumNml9tckVV1xR4w1tpaWlse6668Y666wTXbp0iXnz5sXMmTMbdIM/AORDXdI66pJzzz03brnllmq3FxcXx2abbRZrr712tGnTJmbPnh0TJ06s9p6UESNGxBFHHBH//Oc/o7S0tKnSBqAVUps0fW0yY8aMOOigg+L111+v9jFdunSJ3r17R69evSIiYu7cuTFlypSYN29eg469KvfAQmHRQAgALcwVV1yR841Tt27d4sorr4xTTz01unbtuiJeXl4eI0aMiEsvvTQmTZqUtc/kyZPj+OOPj6effjpKSkqaPPdczj777JxvnPr06RNXX311HHvssdGhQ4cV8UWLFsW9994bl19+eUybNi1rn7Fjx8bZZ58d99xzT6Pk9uCDDzbojWXPnj3rve+0adPi2GOPzfnG6YADDoirrroqBg0alBWfPHlyXH/99XHzzTdHVVVV1rbLLrsstt9++9h///3rnRMA5KI2aR21yaoGDhwY3/jGN2KPPfaIXXbZJet8RHx18Xb8+PFx2223xZ///OfEpwUuXrw4Dj300Bg7dmxsttlmjZITAESoS1pjXVKd8vLyOOOMM7KujxQXFyeulwBAU1KbtK7a5Gc/+1nO5sGioqL45je/Gcccc0wMHTo0OnXqlHjM3Llz4/XXX4/HH388HnnkkcTzDwANpS5Jf13y97//vdrmwa222ip+9KMfxeGHHx6dO3fO2rZs2bIYOXJkXHfddfHkk08m9n388cfj+uuvd7M+AI1KbdK0tcmXX34ZQ4cOjTfeeCOxbe21146zzz47DjvssNhpp52iqKgo8ZgPP/wwxowZE4888kg8/vjjMX/+/Hrl4R5YKEAZAKDFeOONNzIlJSWZiMj6b6ONNsp88MEHNe67YMGCzNChQxP7RkTm97///RqaQbZHHnkkZz477LBDZubMmTXuO2PGjMzAgQNz7v/oo4/WOZe+ffsmxvnoo4/qObOGO+qoo3LO7corr6x133/961+Zdu3aJfbt27dvZtGiRU2fPACthtpkpTTWJp988smKY3fp0iVz/vnnZ9544406jTF+/PjMgAEDcp6XoUOHNlHmALRG6pKV0liX1NVVV12VlW9ZWVnm5JNPznlOAKApqE1Wag21yf33359zftttt13mpZdeqvN4I0eOzFxzzTVNkCkArZG6ZKW01iVLlizJ9OnTJ+e8Tj/99MzSpUvzGud3v/tdpqioKDFGWVlZZtq0aU08CwBaC7XJSo1dmyx32GGH5RzznHPOycyePbtOYy1YsCBzyy23ZJ5++uk65+EeWCg8RZlMJhMAQIuw7777xtNPP50V69ixY7z22mux+eab17r/okWLYtCgQTF+/PisePfu3ePjjz/O+amnTaWqqioGDBiQ+ESYddddN954441YZ511ah3j888/j+222y6mT5+eFf/a174WEyZMiOLi4rzz6devX3z88cdZsY8++ij69euX9xiN5fnnn4899tgjET/ttNPi9ttvz2uMu+++O04++eRE/Oc//3lceumlDc4RACLUJqtLW23y6aefxhZbbBHf//7348ILL4y11lqrXuNMnz49Bg8eHJMnT05sGzlyZAwZMqSBmQKAumR1aatL6mLChAkxcODAWLZs2YrYtddeGwsWLIirrroq8Xh/JgOgKahNsqW5Npk6dWpsvfXWMWfOnKz47rvvHo8//vgafa4AIBd1SbY01iWPPvpoHHLIIYn4/vvvH48//nid5nTllVfGT3/600T8t7/9bXzve99rUJ4AEKE2WV1j1iYRETfffHOcd955ifgNN9wQP/jBD+o0VkO4BxYKU91WFACg2bz22muJN04REZdffnleb5wiIsrKyuJPf/pTIj579uy47bbbGpxjXTz44IOJN04RX71RyeeNU0REr1694oYbbkjEJ06cGA8//HBDU2w2v/rVrxKxddZZJ+dcq/Ptb387hg4dmojfdNNNsWTJkgblBwARapNc0labrL322jF58uS4+uqr6908GBHRu3fvuOWWW3Juu//+++s9LgAspy5JSltdkq+qqqo444wzspoHt9tuuzX6R3EAUJskpbk2ufjiixPNg1tssYXmQQAKgrokKY11yYgRI3LGr7322jo3HVxyySXRq1evRPyRRx6pV24AsCq1SVJj1iYzZ87M2Vh3xRVXrPG/k7gHFgqTBkIAaCFyvbnp0aNHnT/ha/DgwTmL6lxvqppSrvkMGDAgjjnmmDqNc+yxx8aAAQPyGr8l+PTTT+Pxxx9PxH/4wx9Gly5d6jTWsGHDErEZM2a02IveABQWtUluaapN2rdvH927d2+UsYYOHRrbbLNNIv7YY481yvgAtG7qktzSVJfk6/e//32MGTNmxb+Li4vjtttuizZt2jRjVgC0NmqT3NJYm4wdOzb+9re/ZcWKiorilltu0TwIQEFQl+SWtrrkvffeS8Q22WSTnH+XqU379u1zfpvhBx98UK/cAGBVapPcGqs2ufrqq2PevHmJfH7yk5/UaZyGcg8sFC4NhADQAlRUVOT8dpYTTzwxysrK6jzemWeemYi9++67MXbs2HrlV1czZsyIZ555JhE/88wzo6ioqE5jFRUVxemnn56IP/XUUzFz5sx659hc7rvvvqiqqsqKtWnTJk477bQ6j7XLLrvEVlttlYj/9a9/rXd+ABChNqlJ2mqTxrT//vsnYp988klkMplmyAaAtFCXVK+11SUff/xxXHbZZVmx7373u7HTTjs1U0YAtEZqk+qlsTa59tprE7Fjjjkm9thjj2bIBgCyqUuql7a65PPPP0/Etthii3qPl6uB4bPPPqv3eAAQoTapSWPUJrNnz47bb789Ef/Nb34TpaWldcqnodwDC4VLAyEAtAAvvfRSzJkzJxE/6qij6jXewQcfHB06dEjEc33qR1P4z3/+E5WVlYn4kUceWa/xjj766ESssrIy/vOf/9RrvOaU6znYY489omfPnvUaL9e5eeaZZ2LZsmX1Gg8AItQmtUlTbdKYNtxww0SsvLw8Zs2a1QzZAJAW6pKataa65Oyzz44FCxas+PcGG2wQP//5z5sxIwBaI7VJzdJUm8yePTseeOCBRDzXDX8A0BzUJTVLU12S64MaG/JtyLm+GaikpKTe4wFAhNqkNg2tTf7yl7/EwoULs2Lrr79+zg96bmrugYXCpYEQAFqAZ599NhErKyuLwYMH12u89u3bx6677pqI5/pElKaQaz6bbLJJ9O3bt17j9e3bN/r375+Ir6n5NJZly5bFCy+8kIh//etfr/eYufZduHBhvPzyy/UeEwDUJjVLS23S2Kr7VLviYpenAKg/dUnNWktdcvfdd8cTTzyRFfv973/foJvlAKA+1CY1S1Nt8sADD0R5eXlWrHfv3rHPPvs0U0YAkE1dUrM01SW9evVKxBry4Y1ffPFFIta7d+96jwcAEWqT2jS0Nrn33nsTseOPP36N34/hHlgobO7QAoAW4NVXX03EBg4c2KCvFh80aFAitqa+vj3XfHbeeecGjZlrPq+//nqDxlzT3nnnnViyZEki3pBzs/322+f8JLiWdm4AKCxqk9qloTZpbJMnT07E2rVrF927d1/zyQCQGuqS2qW9LpkxY0ZccMEFWbEjjzwyDjvssGbKCIDWTG1Su7TUJrk+Tf/rX/+6b+cBoGCoS2qXlrqkunlUVVXVa7xcN+Pvsssu9RoLAJZTm9SuvrXJ3Llz46WXXkrEm+PbB90DC4VNAyEAtABvvfVWIrbVVls1aMxtttkmEZs7d258/PHHDRq3NuXl5fHf//43EW+K+UyYMCEqKioaNG7EV5+KMnXq1HjzzTfj7bffjqlTp8bixYsbPO7qcj3PEQ07N2VlZbHJJpsk4m+++Wa9xwQAtUnt0lCbNLZcn4yX6xP0AKAu1CW1S3td8v3vfz9mz5694t9dunSJ3/3ud2s0BwBYTm1SuzTUJplMJkaNGpWI55rbcrNmzYp33nknxo4dG1OmTIlFixY1el4AsCp1Se3SUJdERBx11FGJ2BdffBH/+te/6jzW1KlT4z//+U8i/s1vfrNeuQHAcmqT2tW3Nhk9enTODw6o7jpFVVVVTJ48OcaOHRvjx4+PGTNmRGVlZf2SXo17YKGwtWnuBACAmi1btiw++eSTRDxXQVwX1d2s/eGHH9b7a9TzMWXKlJxvaJpiPuXl5fHJJ5/ERhttVK8xr7rqqhg/fnyMGzcuZ869e/eO3XbbLXbfffc46qijYoMNNqjXcZb74IMPErFOnTpF7969GzRu//79Y+LEiVmxDz/8sEFjAtB6qU3yk4bapDG98847OT+B7+CDD26GbABIC3VJftJclzzyyCNx3333ZcV+8YtfxHrrrdckxwOAmqhN8pOG2uTjjz/O+gCD5bbddtusf7/66qvxpz/9KR5//PH49NNPE4/v06dP7LvvvjF06NA4+uijG/StCwCwKnVJftJQl0R89W1Fe+21V4wcOTIrfuGFF8Zuu+0WPXr0yGucysrKOPfccxONjttss00ccsghDc4TgNZLbZKf+tYmub51sXfv3rHOOuus+PeyZcvib3/7W/ztb3+L0aNHJ37fFxcXx/bbbx/77bdfHHnkkbHjjjvWaw7ugYXC5hsIAaDAffLJJzk/HaRPnz4NGre6/SdPntygcWtT3fiFOJ8777wzXn311Wo/wWX69OnxwAMPxAUXXBAbb7xxHH/88TFu3Lh6Hy9Xro1xw1uuc9PUzzMA6aU2yU8aapPGNGzYsJzxI444Ys0mAkCqqEvyk9a6ZP78+XHOOedkxXbZZZdEDADWFLVJftJQm4wfPz5nvF+/fhHx1Y2Ehx12WAwaNCj+9Kc/5WwejPjqG37uuuuuOOGEE2KzzTaLO+64IzKZTL3zAoDl1CX5SUNdstyf/vSn6NSpU1bs/fffj3333TcmTZpU6/5z5syJY445JkaMGJEVb9++fdx5551RXOxWYwDqT22Sn/rOJ9d1iuXXKCIi/vnPf8amm24ap5xySjzxxBM5vxW5qqoqXnvttfjlL38ZO+20UxxyyCHxxhtv1CX9anN1DywUDlU9ABS4mTNn5oz36tWrQeNWt391x2ssTTWf6j6hpKnns1xFRUXce++9MWjQoPjZz36W8w1vbXLl2tDzEpH73Kyp8wJA+qhN8pOG2qSxPPbYY/HAAw8k4rvuumsMHjy4GTICIC3UJflJa13yf//3fzF16tQV/27Tpk3cdtttbmgDoNmoTfKThtpkypQpOeOdO3eO5557Lrbffvt45JFH6jTm5MmT4/TTT48jjzwyFi5cWOecAGBV6pL8pKEuWW6TTTaJf/3rX9GxY8es+BtvvBHbbLNNnHzyyfHwww/HlClTYvHixbFs2bL4/PPP46mnnoqLLroo+vfvHw8++GDWvmVlZfHwww/HwIED650XAESoTfJV39ok13WKzp07R0TEj370o/jGN75R7bWM6jz66KOx8847x/Dhw+u0n3tgobD5KyoAFLjZs2fnjHft2rVB45aUlCQuHEZEzJo1q0Hj1qap5tOlS5ec8aaez+oqKiriiiuuiKFDh8aSJUvqtG+uc9PQ8xKR+9wsXrw45yfJAEBt1Cb5SUNt0hg+//zzOP300xPx4uLiuOGGG9Z4PgCki7okP2msS0aNGhW33XZbVuyiiy6KrbfeukHjAkBDqE3yk4ba5LPPPssZ/+9//xsHHnhgg+by8MMPx+677x5ffvllvccAAHVJftJQl6xqyJAh8dprr8WgQYOy4kuXLo277747jjjiiOjbt2+UlZVFu3btonfv3rHffvvF9ddfH3PmzMnaZ+edd47XXnsthg4dWu98AGA5tUl+6lub5LpO0blz5/i///u/uOaaa+qdz7Jly+K0006Ln/3sZ3nv4x5YKGwaCAGgwC1YsCBnvFOnTg0eO9ebp6b+VNOmmk+uuUTUfT7FxcWx8847x2WXXRZ///vf45133okZM2bE0qVLY+HChfHpp5/GCy+8ENdee23sueee1Y7z1FNPxYknnlinT4jLdW6a6nmOaPrnGoB0UpvkJw21SUNVVFTEscceG9OnT09s+/73v5/4AzYA1JW6JD9pq0uWLFkSZ555ZmQymRWxjTfeOK644op6jQcAjUVtkp801Car32C/3Mknn5w1j6KiojjqqKPivvvui8mTJ8fixYtjzpw58c4778RNN90U22yzTc5x3njjjTj11FPzzgcAVqcuyU8a6pLVbb755vHyyy/HP//5zzjssMOiQ4cOee9bVlYWxx13XDz++OPx0ksvxYABA+qdBwCsSm2Sn/rWJrmuU7z88stx7bXXZsW6d+8el1xySTz//PMxffr0WLp0aXz22WcxcuTIuPDCC1d8a+HqrrzyyhgxYkRec3APLBS2Ns2dAABQs/Ly8pzxNm0a/mu8tLQ0EVu2bFmDx61JU80n11wi8p/PNttsExdccEGcdNJJ0aNHj5yPadu2bZSVlUWfPn1i1113jYsuuijGjRsX5513XowZMybx+AcffDCuvvrqvG9gy3Vumup5jmj65xqAdFKb5CcNtUlDnXvuuTFq1KhEfNttt41f/epXayQHANJNXZKftNUlw4YNi/feey8r9sc//rFON8QBQFNQm+QnDbXJ0qVLc8anTp264v/36dMn/vGPf8TgwYOzHtO+ffvo1q1bbLnllvHd7343brrpprjooosSjQIPPPBA3HbbbXHWWWfllRMArEpdkp801CXVKS0tjS5dukT79u3z/maexYsXx/vvvx9vvvlm7LLLLtGtW7cG5QAAy6lN8lPf2iTXdYpVr1FERBx99NFx6623Rvfu3bPivXv3jt69e8eQIUPioosuipNPPjn+85//ZD0mk8nEySefHBMnTox11lmnxlzcAwuFzTcQAkCBq6yszBkvKSlp8Ni5xqioqGjwuDVpqvlUt3++8xkxYkScf/751V7Urc7AgQPjueeei+9///s5t19zzTU5vyI+l1znpqme54imf64BSCe1SX7SUJs0xM9//vP405/+lIh369YtHnjggWjXrl2T5wBA+qlL8pOmumTcuHFx/fXXZ8VOPPHE2H///es0DgA0BbVJftJQm9SWa+/eveP5559PNA+urri4OC644IK46667cm7/+c9/Xu1NiQBQE3VJftJQl6xuzJgxsd1228VBBx0U99xzT7XfnJxLJpOJ1157LX784x9H37594ze/+U1kMpl65QEAq1Kb5Ke+tUlt20844YS47777Es2Dq+vdu3c88sgjcdBBByW2zZ07N2688cYa949wDywUOg2EAFDgqvv0jcYofHONUd0ndTSWpppPdfs39XwivnpzcuONN8ZJJ52U2LZw4cK4+uqr8xon17lpquc5Ys2cGwDSR22SnzTUJvX1hz/8IX7yk58k4h06dIgRI0ZE//79m/T4ALQe6pL8pKUuqaioiNNPPz1rPt27d48bbrihUXIFgIZSm+QnDbVJbbnefvvt0a9fv7zzOumkk+K0005LxKdMmRJ/+9vf8h4HAJZTl+QnDXXJqm688cbYY4894s0330xs23rrrePiiy+Oe++9N5588skYOXLkim87/PrXvx5FRUVZj58/f35ceOGFccghh8SSJUvqnAsArEptkp/61iY1bd94443j1ltvjeLi/NqG2rZtG3fddVf06tUrse3mm2+OL7/8ssb93QMLhU0DIQAUuOq+naUxvno71xhN/W0wTTWf6vZfU99uU1RUFL/73e9yfrLcgw8+mNensuXKtame5+qOBwC1UZvkp7l//zZGbVIfw4cPj+9973uJeNu2beOhhx6KPfbYo0mOC0DrpC7JT1rqkuuuuy7GjRuXiPXs2bNR8gSAhlKb5CcNtUnbtm2r3bb77rvn/KT+2vz0pz/NeZPdww8/XOexAEBdkp801CXL/eEPf4gLLrgg8a0//fr1iyeeeCLeeuutuOaaa+LYY4+NfffdN4YMGRJHHHFEXHbZZfHUU0/F+PHjY5999kmM+9hjj8VRRx3lmwgBaBC1SX7qW5vUdJ3i0ksvjU6dOtUpj7XXXjt++MMfJuLz5s2LZ599tsZ93QMLhU0DIQAUuM6dO+eM1/ZJHvnINUaXLl0aPG5Nmmo+1e3f1PNZVbdu3eK73/1uIj59+vTEDW655Do3TfU8V3c8AKiN2iQ/aahN6uovf/lLnHHGGYk/Irdp0yb+8Y9/xNChQxv9mAC0buqS/KShLpk0aVJcddVVWbG99torTj311EbLEQAaSm2SnzTUJt26dat225lnnlmvnPr06RMHH3xwIj569Gg37ANQZ+qS/KShLomIePPNN3Pe5L/jjjvGuHHjYv/99691jAEDBsSTTz6Zs5Z57LHH4oYbbsgrFwDIRW2Sn/rWJtVdpygrK4sTTjihXrmcfvrpOb+1cNSoUTXu5x5YKGwaCAGgwOX6pLGIiLlz5zZo3CVLlsTSpUvzPl5jaar5VLd/U89ndYccckjO+Kuvvlrrvrlybeh5qW6MLl26+Pp2AOpFbZKfNNQmdfGPf/wjTj755KiqqsqKl5SUxF//+tc47LDDGvV4ABChLslXS69LMplMnHnmmbFkyZIVsXbt2sUtt9zSqPkBQEOpTfLT0muTiK8+ib86e+65Z71zyrXvrFmz4v3336/3mAC0TuqS/KShLomIuPjiixPfyrPWWmvFiBEjavzgg9UVFxfHzTffHLvuumti21VXXdUoN/8D0DqpTfJT39qkuusUO+20U3To0KFeufTo0SO23HLLRPyll16qdb/VuQcWCocGQgAocL17984Znz59eoPGrW7/6o7XWNI2n9UNHDgwioqKEvHPP/+81n1z5drQ81LdGGv6vACQHmn7XZ62+ayuIbVJvh588ME44YQTorKyMiteXFwcd911V3zzm99stGMBwKrS9ns8bfNZXX3rkltvvTVGjx6dFbv00kvja1/7WqPmBwANlbbf5Wmbz+oacs2kT58+OeNdu3aNfv361Tun7bbbLmd8xowZ9R4TgNYpbb/H0zaf1TWkLpk4cWI8+eSTifiFF14Y6667bp1zadOmTVxzzTWJ+Pz58+Puu++u83gAEJG+3+WFNp/qrlNUd50hX7n2r+0ahXtgobC1ae4EAICarbfeetGuXbvEJ6VMmTKlQeNWt/9GG23UoHFrU934LXU+qyspKYkePXrEF198kRXP54+7uXKdOnVqVFZWRklJSb1zynVu1vR5ASA91Cb5SUNtko9//vOfcdxxx0VFRUVWvKioKG6//fY48cQTG+U4AJCLuiQ/Lb0uue+++7L+3aNHj9hrr71q/ZTb1X366ac547nG6dKlS2yxxRZ1Gh8A1Cb5aem1SUTExhtvnDPevXv3BuVU3TcKzJo1q0HjAtD6qEvyk4a65D//+U/O+EknnVTvfHbbbbfo27dvfPzxx1nxJ598Ms4777x6jwtA66U2yU9957Mmr1PUdo3CPbBQ2DQQAkCBKyoqiv79+8eECROy4pMmTWrQuO+9917O+CabbNKgcWuz7rrrRqdOnWLBggVZ8aaYT+fOnaNXr14NGrexLFu2rNbHbLrppolYeXl5TJ48Ofr371/vY+c6N7mOBQD5UJvkJw21SW3+9a9/xTHHHBPl5eVZ8aKiorj11lvjlFNOafAxAKAm6pL8tPS6JJPJZP171qxZMWTIkEY7/uDBgxOxIUOGxMiRIxvtGAC0DmqT/LT02iQiYrPNNovi4uKoqqrKipeVlTXo2B07dswZX/05AIDaqEvyk4a6ZOzYsYnY+uuvH3379m3QsXffffdEA+Ebb7zRoDEBaL3UJvmpb20yYMCAnPGmuE5R2zUK98BCYStu7gQAgNoNHDgwEXvzzTcbNOa4ceMSsfXXXz/WXnvtBo1bm6Kioth2220T8aaYz7bbbhtFRUUNGreuKisrc37KSpcuXWrdN9fzHNGwc/PFF1/k/IT9hn49PQCtm9qkdmmoTWry+OOPx9FHH53zj9d/+MMf4swzz2zQ+ACQL3VJ7dJelwBAIVGb1C4NtUmnTp1i8803T8Tnz5/foJzmzZuXM97QbwwAoHVSl9QuDXXJzJkzE7HGaIDMNcbq35AIAHWhNqldfWuTHXfcMWe8Ka5T1HaNwj2wUNg0EAJAC7DzzjsnYhMmTKj2D4n5GDNmTF7HaQq5jvPSSy8lPlE+X5lMJl5++eW8jtPUxo0bl3MeG264Ya379u/fP+fXvr/44ov1zifX8xzRPOcGgPRQm9QsLbVJdZ588sk48sgjY+nSpYltv/vd7+Kcc86p99gAUFfqkpqlvS4BgEKjNqlZmmqT3XbbLRGbNWtW4lsJ62LGjBk540194yMA6aQuqVla6pKKiopErLS0tME55RqjIXUOAKhNataQ2mTbbbfN+W2B1V1nyFeu/Wu7RuEeWChsGggBoAXYd999E7HKysp46qmn6jXejBkzcn5aSa7jNIVcx5k5c2aMHTu2XuO9/vrrOT/pbE3NZ1WPPPJIznh1n6yyqqKiovj617+eiD/xxBP1zifXvr17946tttqq3mMCgNqkZmmpTXJ55pln4vDDD48lS5Yktt1www3x3e9+t17jAkB9qUtqlua6BAAKkdqkZmmqTYYOHZqILVq0KCZMmFDvnF599dWc8b59+9Z7TABaL3VJzdJSl+S6iT/XtxLWVa4xevbs2eBxAWi91CY1a0ht0rZt29h7770T8ddee61euSyX6zpFv379atzHPbBQ2DQQAkALMGDAgOjfv38ift9999VrvL///e+JTzopKiqKQw45pF7j1dVee+0VnTt3TsTrO5977703EevcuXPstdde9RqvvubOnRu///3vc+YyaNCgvMY49NBDE7F33nmnXn9wrqioiPvvvz+vYwBAXahNapam2mRVo0ePjkMPPTQWL16c2HbdddfFD37wg/qkCQANoi6pWRrqkpEjR0Ymk2nwf1deeWXO8XM9duTIkY0xbQBaIbVJzdJQmyx3wAEHRKdOnRLx//znP/XOK9e+W221lZv1AagXdUnN0lKXrLPOOonYRx99FLNnz25QXrkaBtQkADSE2qRmDa1Njj766ETszTffrPe3EL7//vvx0UcfJeK5GhVX5x5YKFwaCAGghTjppJMSsYcffjg++eSTOo2TyWTiD3/4QyK+1157xfrrr1/v/OqiQ4cOceSRRybid9xxRyxcuLBOYy1cuDCGDx+eiB999NHRvn37eudYV5lMJr73ve/lvAh79NFHR7t27fIa54gjjsj5dfK//e1v65zT/fffH59//nkinuu1BAB1pTbJLW21yXIvvPBCHHzwwbFo0aLEtl/96ldx4YUX1jtXAGgodUluaa1LAKDQqU1yS1tt0rFjxzjmmGMS8VtuuSVxA2M+3nzzzXjhhRcS8Vyf2g8A+VKX5JamumSHHXZIxKqqqmLEiBH1zuu9996Lt99+OxGvz4dTAsCq1Ca5NUZtcvTRRycaGisqKuK2226rUy7L5Tq/Efldp3APLBQuDYQA0EKcddZZ0bZt26xYeXl5/OQnP6nTOMOHD4933303Ef/ud7+b9xj9+vWLoqKirP9q+2ryfI43a9asuOaaa+o0zq9//eucF1Pznc/IkSPj008/rdMxV1dZWRk/+MEP4p577klsKykpiYsvvjjvsTp27BinnHJKIn7HHXfEpEmT8h5n6dKlcfnllyfi22yzTey55555jwMA1VGb5Ja22iQi4pVXXomDDjooFixYkNj2i1/8In70ox/VO1cAaAzqktzSWJcAQEugNsktjbXJD3/4wygqKsqKvffee3HTTTfVaZyqqqr4/ve/n4gXFRXFGWecUaexAGBV6pLc0lSX7L///ol6JOKrv98sW7asXrnlutckImLo0KH1Gg8AllOb5NbQ2iTiq/tOv/Od7yTi1157bUyZMqVO+YwfPz7++Mc/JuI77bRTbLfddnnl4h5YKFAZAKDF+M53vpOJiMR/f//73/Paf+LEiZmuXbsm9t9qq60ylZWVeefRt2/fxBh9+/at83wOOOCAxDilpaWZF154Ia/9n3vuuUxpaWlijIMOOijvHM4///xMaWlp5lvf+lbm6aefzpSXl9dpDuPGjcvsuuuuOZ+XiMhceOGFdRovk8lkJk+enGnXrl1irB133DGzaNGivMY455xzGvRaAYB8qE2ypbE2GTt2bKZbt245x/rZz35Wp7EAoCmpS7KlsS5pqCuvvDJnHgDQFNQm2dJcm5x44omJsdq3b5956qmn8h7jggsuyJnT0UcfXa+cAGBV6pJsaaxL9ttvv5zjfOtb38pUVVXVaazf//73Ocdae+21MwsWLKjTWACQi9okW2PUJsvNmDEjs9ZaayXG2mmnnTKzZ8/Oa4zPPvssM2DAgJzP0b/+9a+8c3EPLBQmfxkFgBZk5syZme7duycK4nbt2mX++te/1rjv2LFjM+uvv37OgvqZZ56pUx6N9ebpv//9b6Zt27aJsbp165Z5+umna9z3ySefzPlGsG3btpl333037xzOP//8rP27d++eOf744zPXXntt5oknnsi8//77mRkzZmSWLl2aWbx4cWbatGmZF198MXPddddlhgwZUu0F3YjI7L777pmlS5fW+bxkMpnMFVdckXPMffbZJzNz5sxq9ysvL0/Mafl/Q4YMqVcuAFAdtclKaaxN3n333UyPHj1yjnXYYYdlxowZ0yj/zZgxI++cAKA66pKV0liXNAYNhACsSWqTldJem0yfPr3a5/rGG2+ssaHgs88+yxx33HE5c+rSpUtm0qRJ9coJAFalLlkprXXJq6++mikqKso53iGHHJLX32EWL16cufjii6sd58Ybb6xTTgBQHbXJSo1Vm6zqT3/6U87zs+WWW2bGjBlT475PP/10ZuONN865f30aGt0DC4XHX0YBoIV56KGHqr2QeOCBB2YefvjhzPTp0zMVFRWZOXPmZEaOHJk588wzc35KSURkLrjggjrn0FhvnjKZTObGG2/MmVdRUVHmuOOOyzzxxBOZWbNmZSoqKjJffPFF5vHHH88cc8wx1V60vOmmm+p0/OreaDT0vyFDhmTmzZtXr3OSyWQyS5cuzQwaNCjn2D169Mj87Gc/y7z55puZRYsWZZYtW5b54IMPMrfeemu1n/6y1lprZSZPnlzvfACgOmqT9NYmw4cPb5JcVv9v+PDhdcoLAKqjLklvXdIYNBACsKapTVpPbfLvf/87U1xcnHP8fv36ZX74wx9m7rvvvsyzzz6beeKJJzK333575oQTTsh06tSp2nM6YsSIBuUEAKtSl6S/Ljn33HOrHbesrCxz9tlnZx566KHMlClTMgsXLswsXbo089lnn2WefvrpzKWXXprp1atXtfvvuOOOa/yDoABIN7VJ49YmqzvxxBOrzWfvvffOXH/99ZkRI0ZkRo8enXn44Yczv/71rzO77bZbtc/JJptskpkzZ06d83APLBQefxkFgBboF7/4RaNcfDzkkEMyy5Ytq/PxG/PNUyaTyZx11lmNMp+zzz67zsdu7Au7bdu2zfzyl7/MVFRU1Pt8LPfpp59mNtpoowbn1KFDhzp/wg4A1IXaJJ21iQZCAFoidUk665LGoIEQgOagNmk9tcldd91VbRNhXf5r06ZN5pZbbmmUnABgVeqSdNclFRUVmW984xuNmldEZDbddNO8vsEQAOpKbdJ4tcnqlixZkjn44IMbJZ/+/ftnJk6cWO9c3AMLhaU4AIAW55JLLokbbrghSkpK6j3GSSedFPfff3+UlpY2Ymb1c8stt8RFF13UoDH+7//+L/74xz/Web+tttoq+vTp06BjR0R07NgxzjjjjHjjjTfixz/+cYOem+X69OkTo0aNioEDB9Z7jJ49e8bjjz8ee++9d4PzAYDqqE2S0libAEBLoC5JUpcAQPNRmySltTb59re/HY8++mj06NGj3mOsvfba8Z///CfOPvvsRskJAFalLklKU11SUlIS9913X1x44YVRXNw4twUfeOCBMWrUqOjZs2ejjAcAq1KbJNW3Nlldu3bt4qGHHorzzz+/QePst99+8corr8Rmm21W7zHcAwuFpSiTyWSaOwkAoH5efvnlOO+88+L111/Pe5911103rrnmmjjppJPqfdx+/frFxx9/nBXr27dvTJ48ud5jRkQ8/vjjcf7558d7772X9z6bbrpp/Pa3v40DDjigQceeNGlSvPDCCzFu3Lh4880347333ovPP/88qqqqcj6+TZs2seWWW8bOO+8cgwcPjiOPPDK6dOnSoByqs2TJkrj66qvj+uuvjyVLluS1T1FRUXzzm9+MG264IdZbb70myQsAVqc2SVdtcuedd8app57aoDHyMXz48DjllFOa/DgAtC7qknTVJY1h2LBhcdVVVyXi/kwGwJqgNmk9tckXX3wRw4YNizvuuCMWL16c1z5du3aN888/P374wx9G165dmyw3AIhQl0Skvy55/vnnY9iwYfHMM8/U67rHFltsERdffLG/3QCwRqhNGq82yeWFF16IH//4x/H888/nvc+2224bw4YNi2984xuNlod7YKEwaCAEgBR46qmn4p577omnnnoqpk6dmtjerVu32GOPPeLoo4+OY489Ntq1a9cMWeansrIyRowYEffee288++yzMXPmzMRjevbsGXvvvXccd9xxcdhhhzXZJ9dXVFTE9OnT48svv4xFixZFcXFxdO3aNbp16xZdu3Zd45+YP3PmzBg+fHiMGDEiXnvttVi6dGnW9uLi4hgwYEAceOCBcdppp8WAAQPWaH4AsJzapHXUJgDQEqhL1CXLjRw5MkaOHJmIDxs2bI3nAkDrpTZpPbXJnDlz4uGHH46nnnoq3n777fjkk09iwYIF0b59+1h77bVjnXXWiUGDBsV+++0X++yzT3Tq1GmN5whA66YuSX9dMmnSpLj33nvjpZdeildeeSVmzZqV83FlZWUxcODAGDRoUBx++OExZMiQNZYjACynNmnaGuHtt9+Of/7zn/H888/HxIkTY+bMmbFkyZLo1q1b9OzZMzbYYIPYe++9Y7/99osddtghioqKmiQP98BC89JACAApM3fu3Jg2bVosXLhwxR8h11133eZOq96++OKL+Pzzz2PRokVRVlYWvXr1irXXXru502p2lZWV8cknn8TcuXOjsrIyunTpEhtssEG0b9++uVMDgCxqEwCgUKhLAIBCojYBAAqFuqR1mDdvXsydO3fFfSbLGxvXWmutKC4ubu70AGAFtUnr4B5YWPM0EAIAAAAAAAAAAAAAAABACvnYEAAAAAAAAAAAAAAAAABIIQ2EAAAAAAAAAAAAAAAAAJBCGggBAAAAAAAAAAAAAAAAIIU0EAIAAAAAAAAAAAAAAABACmkgBAAAAAAAAAAAAAAAAIAU0kAIAAAAAAAAAAAAAAAAACmkgRAAAAAAAAAAAAAAAAAAUkgDIQAAAAAAAAAAAAAAAACkkAZCAAAAAAAAAAAAAAAAAEghDYQAAAAAAAAAAAAAAAAAkEIaCAEAAAAAAAAAAAAAAAAghTQQAgAAAAAAAAAAAAAAAEAKaSAEAAAAAAAAAAAAAAAAgBTSQAgAAAAAAAAAAAAAAAAAKaSBEAAAAAAAAAAAAAAAAABSSAMhAAAAAAAAAAAAAAAAAKSQBkIAAAAAAAAAAAAAAAAASCENhAAAAAAAAAAAAAAAAACQQhoIAQAAAAAAAAAAAAAAACCFNBACAAAAAAAAAAAAAAAAQAppIAQAAAAAAAAAAAAAAACAFNJACAAAAAAAAAAAAAAAAAAppIEQAAAAAAAAAAAAAAAAAFJIAyEAAAAAAAAAAAAAAAAApJAGQgAAAAAAAAAAAAAAAABIIQ2EAAAAAAAAAAAAAAAAAJBCGggBAAAAAAAAAAAAAAAAIIU0EAIAAAAAAAAAAAAAAABACmkgBAAAAAAAAAAAAAAAAIAU0kAIAAAAAAAAAAAAAAAAACmkgRAAAAAAAAAAAAAAAAAAUkgDIQAAAAAAAFAwhg0bFkVFRVn/DRs2rLnTYg2ZN29e9OrVK+v5v+OOO5o7rZwmTpwYpaWlWbk+//zzzZ0WAAAAAABAFg2EAAAAAAAAABSEyy+/PGbMmLHi31tttVWccsopzZdQDb72ta/F6aefnhX77ne/G5WVlc2UEQAAAAAAQJIGQgAAAAAAAGilJk+enPi2v+b6b/Lkyc19Omhmb775Ztx8881ZsV//+tdRXFy4f9YeNmxYlJWVrfj3m2++GX/84x+bMSMAAAAAAIBshfuXFgAAAAAAAABajQsuuCDr2/sGDx4cBx10UDNmVLvevXvHeeedlxW74oorYt68ec2UEQAAAAAAQDYNhAAAAAAAAAA0qyeffDKeffbZrNgll1zSTNnUzQUXXBDt2rVb8e85c+bEtdde24wZAQAAAAAArKSBEAAAAAAAAIBmddlll2X9e6uttopDDjmkmbKpm3XXXTdOOeWUrNhNN90UM2fObJ6EAAAAAAAAVlGUyWQyzZ0EAAAAAAAAsOYtXbo0xo0bV699zz333MS+AwcOjJtvvrle4w0cODDrW9xoPf71r3/FoYcemhW744474tRTT22mjOpu0qRJ8bWvfS0rdvHFF8c111zTTBkBAAAAAAB8RQMhAAAAAAAAUGd77bVXjBo1Kis2ZMiQGDlyZPMkRIu1+mupa9euMW3atCgrK2vGrOou1zw+/fTT6NSpUzNmBQAAAAAAtHbFzZ0AAAAAAAAAAK3T2LFjE42oJ510UotrHoyIOOuss7L+PW/evLj99tubKRsAAAAAAICvaCAEAAAAAAAAoFn89re/TcROO+20Zsik4Y466qjo2rVrVuy3v/1tZDKZZsoIAAAAAABAAyEAAAAAAAAAzWDBggVx//33Z8U22mij2H777Zspo4Zp165dHHLIIVmxDz/8MJ577rlmyggAAAAAACCiTXMnAAAAAAAAANAcxo8fH2+99VZ89tlnsWjRoujSpUv069cvdtlll1hnnXXqNNbixYtj3LhxMWHChJg9e3ZERPTq1Ss22WST2GWXXaKkpKQpprDCokWLYty4cfHBBx/EzJkzY/HixdGtW7fo1atXrL/++rHTTjtFmzaF9efhBx98MBYuXJgVO+qooxr1GOXl5TFhwoSYMGFCzJkzJ+bPnx+VlZVRVlYWHTt2jPXWWy/69esX/fv3jw4dOjT4eEcffXT85S9/yYrdddddseeeezZ4bAAAAAAAgPoorL8QAQAAAAAAAK3asGHD4qqrrsqKXXnllTFs2LBa9x05cmTsvffeWbEhQ4bEyJEjV/x79uzZcdNNN8Xtt98eU6dOzTlOSUlJDB06NH7605/GDjvsUOMxx48fH7/61a/i4YcfjgULFuR8TI8ePeLb3/52XHnlldG1a9da55GvJUuWxD333BN/+ctf4vnnn4+KiopqH9u1a9fYb7/94qyzzor99tuv0XJoiNUb7SIivvGNbzR43IqKirj//vvj//2//xdPPfVULFu2rNZ92rRpE1tvvXXsuuuucfjhh8fee+9dr4bLAw44INq3bx9LlixZEbv//vvj5ptvjnbt2tV5PAAAAAAAgIYqbu4EAAAAAAAAANaEESNGxOabbx4//elPq20ejIiorKyMxx57LAYNGhRXX311zseUl5fHxRdfHNtss03cc8891TYPRkTMmjUrbrjhhth8883jpZdeavA8MplMDB8+PPr16xdnnnlmjBw5ssbmwYiIefPmxf333x/7779/HHTQQTFx4sQG59EQCxYsyGrsjIjo2LFjDBo0qEHjPv/88zFw4MA4/vjj47HHHsureTDiq6bDcePGxR/+8IfYf//945BDDqnX8du3bx+DBw/Ois2fPz9Gjx5dr/EAAAAAAAAaSgMhAAAAAAAAkHq33HJLHHHEETFz5sy896mqqorLL788Lr/88qz44sWL4+CDD47rrrsuqqqq8h5v+vTpMXTo0Hjttdfy3md18+fPjyOOOCJOO+20+Pzzz+s1xuOPPx677LJLPPfcc/XOo6GefvrpRHPfrrvuGqWlpfUe8/7774999tkn3nnnnYaml/UNgnW1+rdgRkQ89thjDUkHAAAAAACg3to0dwIAAAAAAAAATemf//xnnHfeeYlmv4033jh69+4dbdq0ialTp8YHH3yQc/+rr746dt999xg6dGhUVVXFN7/5zXjyySezHtOhQ4fYeOONo2fPnrFo0aJ4//33Y/bs2Ymx5s+fHyeeeGK89dZb0a5duzrNY86cObH//vvX2IDYo0eP2GCDDaJ79+7x5ZdfxpQpU3I2Gs6dOzf233//eOSRR2LfffetUx6N4YknnkjE9thjj3qP98Ybb8Txxx9f7Tcxtm3bNvr16xc9e/aMDh06xOLFi2PevHkxbdq0nM9TQwwZMiQR+/e//x033HBDox4HAAAAAAAgH76BEAAAAAAAAEitzz//PE477bQVzYPdu3eP6667Lj799NP44IMP4oUXXohRo0bF+++/Hx9++GGcdtppOcc5//zzo6qqKn7+85/Ho48+uiK+yy67xCOPPBKzZs2Kd955J5599tl4+eWXY8aMGfHEE0/ElltumRhr0qRJcd1119VpHplMJr71rW/lbB7s2rVrXHLJJfHWW2/FzJkzY9y4cfH000/HK6+8EtOnT4833ngjzjzzzCgpKcnab8mSJXHiiSfGjBkz6pRLYxgzZkwitu2229Z7vHPPPTfRPFhUVBTHHXdcPPPMM/Hll1/GxIkT4/nnn48nn3wynn/++Xj77bdj1qxZMXXq1BgxYkR85zvfiT59+tQ7h+VyzWPixIkxZ86cBo8NAAAAAABQVxoIAQAAAAAAgNR69913V3zD3K677hqTJk2KCy+8MGej2EYbbRS33357XHvttYltEydOjGuvvTauvvrqiPiqOe1Xv/pVjBkzJg455JDo0KFD1uNLSkpi//33jzFjxsROO+2UGO/WW29NfCNiTa6//vqsxsXlDjjggPjggw/iF7/4RWy99dZRVFSUeMy2224bt912W4wePTp69OiRtW3GjBlxxhln5J1HY1iyZEm88847ifjWW29dr/HefffdRENiUVFR3HvvvfG3v/0t9t5772jbtm21+6+33npx6KGHxh//+MeYMmVKPPjgg7HbbrvVK5eIrxo6N9xww6xYJpOp8ZsjAQAAAAAAmooGQgAAAAAAACD1Bg4cGE899VSigS6Xiy66KPbcc89E/Mc//nEsW7YsIiJ+/etfx49+9KNax+rcuXPcdddd0aZNm6z4J598Es8880xeuX/00Udx6aWXJuLHHHNMPPbYY3nNKeKrBsqnn3462rdvnxV/5JFH4vXXX89rjMbw1ltvJb4tsGPHjtGvX796jffEE08kYt/61rfimGOOqfNYxcXFccQRR8TPf/7zeuWyXK5mSA2EAAAAAABAc9BACAAAAAAAAKRaaWlp/PWvf018S2BNLrjggmq37b333nHRRRflPdaAAQPiwAMPTMSfe+65vPa/4YYbory8PCu25ZZbxl133ZXzGwdrsu2228Yvf/nLRPzGG2+s0zgN8d577yVi66+/fp3nstwnn3ySiB1yyCH1GquxbLDBBonY+++/3wyZAAAAAAAArZ0GQgAAAAAAACDVjjnmmNh8883rtM8BBxwQpaWlObddfvnldW52O/zwwxOxsWPH1rrf7Nmz44477kjEr7vuusQ3CebrO9/5TqyzzjpZsb///e+xcOHCeo1XV5MnT07E+vTpU+/x5s+fn4h16dKl3uM1hvXXXz8RyzVvAAAAAACApqaBEAAAAAAAAEi10047rc77tG/fPjbbbLNEvG/fvrH33nvXebxtttkmEZs0aVKt+z3yyCOJxr5NN900DjjggDrnsFz79u3j6KOPzootW7YsXn755XqPWRdTpkxJxNZbb716j9etW7dE7JVXXqn3eI0h13xyzRsAAAAAAKCpaSAEAAAAAAAAUqtNmzaxyy671Gvfvn37JmK77bZbvcbq169fIjZv3rxa9xs9enQidtRRR9Urh1XtscceidiLL77Y4HHzMXfu3ESsU6dO9R5vyy23TMSuv/76eOutt+o9ZkPlmk+ueQMAAAAAADQ1DYQAAAAAAABAavXt2zfKysrqtW/nzp0TsQEDBjTaWPVtINxxxx3rlcOqcjU0rqmGu0WLFiViHTp0qPd4+++/f5SWlmbF5s2bFzvvvHP8+Mc/jo8++qjeY9dXrtfc6t8kCQAAAAAAsCa0ae4EAAAAAAAAAJpK9+7d671v+/btG228XGMtWbKkxn2WLl0a77//fiK+aNGieOmll+qVx3JTpkxJxGbPnt2gMfOVq4Ew1/nJ17rrrhunnnpq3HbbbVnxJUuWxK9//ev49a9/Hdtvv30MHTo09txzzxg8eHB07dq13sfLR66GyMWLF0cmk4mioqImPTYAAAAAAMCqNBACAAAAAAAAqVXfbx9cU+PVZNasWTnj3/72t5vkeGuqgXD1bwuMiKioqGjQmNdff3289NJL1X6L4tixY2Ps2LHxy1/+MoqKimLAgAGx1157xT777BP77rtvozcUlpeXJ2Jt2rTRPAjA/2/v/kKrLvgHjn823BD/rOmUnBmlRBPJ0vU/ydL+kKa2qFAjEgzxoi5SCmqaF5l0ExL9URO7CZKBKzC0P1ebEjkaRmht4TCXJPkncy5zzTXPc9Hv2e93nnN+z+POTjvr+7xe4MX5eM7n+znX480BAAAAgEFXXOgDAAAAAAAAAMg0WEHfP509e3ZQnpMtwuzq6hrQzlGjRsWePXti0aJF//G9qVQqWlpaYtOmTfHoo4/GhAkT4rHHHouGhoYB3fB/ZfuVxZEjR+ZtPwAAAAAAwKUSEAIAAAAAAAAMQR0dHYP6vN7e3kF5zqhRozJmAw0IIyLKy8tj586d8cknn8Rdd911yb/29/vvv0d9fX3MnTs35syZE4cPHx7wLdm+j4AQAAAAAAAoBAEhAAAAAAAAwBA0bNiwQp/wl6isrMyYnTp1Km/7H3jggWhsbIzDhw/Hxo0bY+HChVFeXn5Jn21sbIzq6upobGwc0A3Zvs/EiRMHtBMAAAAAACAXAkIAAAAAAACAIaisrCzrvKWlJVKpVN7/tbe3D8r3uvrqqzNmx44dy/tzJk+eHKtWrYqPPvooTp8+HQcOHIi33norFi9eHOPHj/9/P9fZ2RkPP/xw/PDDDzk/O9v3ueqqq3LeBwAAAAAAkCsBIQAAAAAAAMAQdOWVV2adnz59epAvya9sAeGPP/74lz6zuLg4pk+fHk8//XTU1dXF8ePH4/PPP4/ly5dHaWlpxvs7Ojpi3bp1OT8vW0CY7XsDAAAAAAD81QSEAAAAAAAAAEPQ6NGjY9KkSRnzgfwy3lAwffr0jNnJkyejs7Nz0G4oLi6OWbNmxbvvvhsHDx6Ma665JuM9O3bsiO7u7pz2Hzp0KGN2/fXX57QLAAAAAABgIASEAAAAAAAAAEPU7bffnjFraGgowCX5M2nSpJgwYULaLJVKxTfffFOQe6699tqoq6vLmHd1dcX+/fv7va+3tze+/fbbjPnNN9+c030AAAAAAAADISAEAAAAAAAAGKIWLFiQMfv4449z/mW8oSJbTHfgwIECXPKnG2+8MeuvEB4/frzfu9ra2qKrqyttNnr06Kiqqsr5PgAAAAAAgFwJCAEAAAAAAACGqJqamhg1alTa7KeffoqtW7cW6KL8mDNnTsbsyy+/LMAl/2vcuHEZs97e3n7vaW5uzpjNnj07iov9eR4AAAAAABh8/kIBAAAAAAAAMESVlZXFihUrMubr1q2L1tbWAlyUH/PmzcuYNTY2Dv4h/+PixYtx5MiRjPkVV1zR710NDQ0Zs/nz5+d0FwAAAAAAwEAJCAEAAAAAAACGsLVr10ZFRUXarKOjI+bPn5+XiLCtrS3ee++9Ae/pj6lTp8bkyZPTZkeOHImjR4/2e9cLL7wQe/bsGdA9dXV1ceLEibTZ8OHD47rrruv3rmwBYbZgEgAAAAAAYDAICAEAAAAAAACGsLFjx8a2bdsy5u3t7XHTTTfF66+/HufPn+/XznPnzkV9fX0sXLgwqqqqYvv27fk695I98sgjGbPPPvus33s+/fTTuPvuu+OWW26JLVu2xMmTJ/v1+fr6+li5cmXGfMGCBVFWVtavXYcOHYr29va02cyZMzNiSQAAAAAAgMEyrNAHAAAAAAAAAPDv1dTUxPr16+Oll15Km58/fz5WrVoVL7/8cixZsiTuvPPOmDlzZowbNy7Ky8uju7s7Ojs745dffonW1tY4cOBANDc3R0NDQ3R3dxfo2/zpySefjNdeey1tVl9fHytWrMhpX3NzczQ3N8czzzwTs2bNijvuuCOqq6tj2rRpUVFREWPGjImioqL49ddf4/Dhw9HU1BR1dXWxb9++jF3Dhw+PV155pd83fPDBBxmzZcuW5fR9AAAAAAAA8kFACAAAAAAAAPA3sHbt2iguLo41a9Zk/N+ZM2di8+bNsXnz5gJclpvp06fHjBkz4uuvv+6bNTQ0xJkzZ2LMmDE57+3t7Y29e/fG3r17c/p8UVFRvP3221FVVdXvz/5rQDhs2LB4/PHHc7oDAAAAAAAgH4oLfQAAAAAAAAAAl6a2tjZ27doVl19+eV73lpSU5HXfpVq5cmXa656enqivry/ILRERI0aMiO3bt8fy5cv7/dm2trbYv39/2qympibGjx+fr/MAAAAAAAD6TUAIAAAAAAAA8Dfy4IMPxqFDh2LNmjUxduzYnPeUlJTEvHnzoq6uLnbs2JHHCy/dsmXLoqKiIm22devWfu2ora2Nhx56KEaOHJnzHcXFxbF48eL47rvvYsmSJTntyHb36tWrc74JAAAAAAAgH4pSqVSq0EcAAAAAAAAAfy8tLS3R2dmZNisrK4tp06YV6KL/Tl1dXbF79+7YtWtXNDU1RVtbW1y8eDHreydOnBhTp06N6urqmDt3bsyePXtA0V2+rF27NjZs2JA2++qrr2LmzJn92tPd3R1NTU3xxRdfRFNTU7S2tkZ7e3v09PRkfX9lZWXMmDEj7r333li6dGlUVlbm/B0uXLgQkyZNilOnTvXNbrvttti3b1/OOwEAAAAAAPJBQAgAAAAAAACQED09PXHs2LE4e/ZsXLhwIUaMGBGjR4+OioqKIRELZnPy5MmYMmVK/Pbbb32zp556KrZt2zbg3b29vXHixIno7OyMc+fORUlJSZSVlcXYsWPjsssuG/D+f3r//ffjiSeeSJvt3LkzFi1alLdnAAAAAAAA5EJACAAAAAAAAEBB1dbWxquvvtr3urS0NI4cORITJ04s4FWXJpVKxQ033BAHDx7sm916663R1NRUwKsAAAAAAAD+VFzoAwAAAAAAAAD47/b8889HeXl53+sLFy7Exo0bC3dQP+zevTstHoyI2LBhQ4GuAQAAAAAASCcgBAAAAAAAAKCgxowZEy+++GLa7J133omff/65QBddun+NBe+///645557CnQNAAAAAABAOgEhAAAAAAAAAAX37LPPRlVVVd/rc+fOxfr16wt40X/24YcfRlNTU9/rkpKSeOONNwp4EQAAAAAAQDoBIQAAAAAAAAAFV1paGm+++WbabMuWLfH9998X6KJ/748//sj41cTVq1enRZAAAAAAAACFNqzQBwAAAAAAAABARMR9990XmzZtihMnTvTN2tvbY8qUKQW8KrujR4/G0qVL+14XFRXFc889V8CLAAAAAAAAMhWlUqlUoY8AAAAAAAAAAAAAAAAAAPKruNAHAAAAAAAAAAAAAAAAAAD5JyAEAAAAAAAAAAAAAAAAgAQSEAIAAAAAAAAAAAAAAABAAgkIAQAAAAAAAAAAAAAAACCBBIQAAAAAAAAAAAAAAAAAkEACQgAAAAAAAAAAAAAAAABIIAEhAAAAAAAAAAAAAAAAACSQgBAAAAAAAAAAAAAAAAAAEkhACAAAAAAAAAAAAAAAAAAJJCAEAAAAAAAAAAAAAAAAgAQSEAIAAAAAAAAAAAAAAABAAgkIAQAAAAAAAAAAAAAAACCBBIQAAAAAAAAAAAAAAAAAkEACQgAAAAAAAAAAAAAAAABIIAEhAAAAAAAAAAAAAAAAACSQgBAAAAAAAAAAAAAAAAAAEkhACAAAAAAAAAAAAAAAAAAJJCAEAAAAAAAAAAAAAAAAgAQSEAIAAAAAAAAAAAAAAABAAgkIAQAAAAAAAAAAAAAAACCBBIQAAAAAAAAAAAAAAAAAkEACQgAAAAAAAAAAAAAAAABIIAEhAAAAAAAAAAAAAAAAACSQgBAAAAAAAAAAAAAAAAAAEkhACAAAAAAAAAAAAAAAAAAJJCAEAAAAAAAAAAAAAAAAgAQSEAIAAAAAAAAAAAAAAABAAgkIAQAAAAAAAAAAAAAAACCBBIQAAAAAAAAAAAAAAAAAkEACQgAAAAAAAAAAAAAAAABIIAEhAAAAAAAAAAAAAAAAACSQgBAAAAAAAAAAAAAAAAAAEkhACAAAAAAAAAAAAAAAAAAJJCAEAAAAAAAAAAAAAAAAgAQSEAIAAAAAAAAAAAAAAABAAgkIAQAAAAAAAAAAAAAAACCBBIQAAAAAAAAAAAAAAAAAkEACQgAAAAAAAAAAAAAAAABIIAEhAAAAAAAAAAAAAAAAACSQgBAAAAAAAAAAAAAAAAAAEkhACAAAAAAAAAAAAAAAAAAJJCAEAAAAAAAAAAAAAAAAgAQSEAIAAAAAAAAAAAAAAABAAgkIAQAAAAAAAAAAAAAAACCBBIQAAAAAAAAAAAAAAAAAkEACQgAAAAAAAAAAAAAAAABIIAEhAAAAAAAAAAAAAAAAACSQgBAAAAAAAAAAAAAAAAAAEkhACAAAAAAAAAAAAAAAAAAJJCAEAAAAAAAAAAAAAAAAgAQSEAIAAAAAAAAAAAAAAABAAgkIAQAAAAAAAAAAAAAAACCBBIQAAAAAAAAAAAAAAAAAkEACQgAAAAAAAAAAAAAAAABIIAEhAAAAAAAAAAAAAAAAACSQgBAAAAAAAAAAAAAAAAAAEkhACAAAAAAAAAAAAAAAAAAJJCAEAAAAAAAAAAAAAAAAgAQSEAIAAAAAAAAAAAAAAABAAgkIAQAAAAAAAAAAAAAAACCBBIQAAAAAAAAAAAAAAAAAkEACQgAAAAAAAAAAAAAAAABIoH8AeiZlnWxHEGMAAAAASUVORK5CYII=;" parent="1" vertex="1">
          <mxGeometry x="403" y="977" width="3600" height="777" as="geometry" />
        </mxCell>
        <mxCell id="sYfaaO-ZHG4B5GgnODyv-2" value="" style="endArrow=none;html=1;rounded=0;strokeWidth=3;fillColor=#f8cecc;strokeColor=#b85450;" parent="1" edge="1">
          <mxGeometry width="50" height="50" relative="1" as="geometry">
            <mxPoint x="1022" y="1092" as="sourcePoint" />
            <mxPoint x="1128" y="1092" as="targetPoint" />
          </mxGeometry>
        </mxCell>
        <mxCell id="sYfaaO-ZHG4B5GgnODyv-3" value="" style="endArrow=none;html=1;rounded=0;strokeWidth=3;fillColor=#f8cecc;strokeColor=#b85450;" parent="1" edge="1">
          <mxGeometry width="50" height="50" relative="1" as="geometry">
            <mxPoint x="1022" y="1092" as="sourcePoint" />
            <mxPoint x="1032" y="1082" as="targetPoint" />
          </mxGeometry>
        </mxCell>
        <mxCell id="sYfaaO-ZHG4B5GgnODyv-4" value="" style="endArrow=none;html=1;rounded=0;strokeWidth=3;fillColor=#f8cecc;strokeColor=#b85450;" parent="1" edge="1">
          <mxGeometry width="50" height="50" relative="1" as="geometry">
            <mxPoint x="1022" y="1092" as="sourcePoint" />
            <mxPoint x="1032" y="1102" as="targetPoint" />
          </mxGeometry>
        </mxCell>
        <mxCell id="sYfaaO-ZHG4B5GgnODyv-5" value="" style="endArrow=none;html=1;rounded=0;strokeWidth=3;fillColor=#f8cecc;strokeColor=#b85450;" parent="1" edge="1">
          <mxGeometry width="50" height="50" relative="1" as="geometry">
            <mxPoint x="1128" y="1092" as="sourcePoint" />
            <mxPoint x="1118" y="1082" as="targetPoint" />
          </mxGeometry>
        </mxCell>
        <mxCell id="sYfaaO-ZHG4B5GgnODyv-6" value="" style="endArrow=none;html=1;rounded=0;strokeWidth=3;fillColor=#f8cecc;strokeColor=#b85450;" parent="1" edge="1">
          <mxGeometry width="50" height="50" relative="1" as="geometry">
            <mxPoint x="1128" y="1092" as="sourcePoint" />
            <mxPoint x="1118" y="1102" as="targetPoint" />
          </mxGeometry>
        </mxCell>
        <mxCell id="sYfaaO-ZHG4B5GgnODyv-7" value="$$\delta$$" style="text;html=1;strokeColor=none;fillColor=none;align=center;verticalAlign=middle;whiteSpace=wrap;rounded=0;strokeWidth=1;fontSize=40;" parent="1" vertex="1">
          <mxGeometry x="1044" y="1052" width="60" height="30" as="geometry" />
        </mxCell>
        <mxCell id="sYfaaO-ZHG4B5GgnODyv-8" value="" style="endArrow=none;dashed=1;html=1;rounded=0;" parent="1" edge="1">
          <mxGeometry width="50" height="50" relative="1" as="geometry">
            <mxPoint x="1023" y="1466" as="sourcePoint" />
            <mxPoint x="1022" y="1090" as="targetPoint" />
          </mxGeometry>
        </mxCell>
        <mxCell id="sYfaaO-ZHG4B5GgnODyv-9" value="" style="endArrow=none;dashed=1;html=1;rounded=0;" parent="1" edge="1">
          <mxGeometry width="50" height="50" relative="1" as="geometry">
            <mxPoint x="1129" y="1466" as="sourcePoint" />
            <mxPoint x="1129" y="1090" as="targetPoint" />
          </mxGeometry>
        </mxCell>
      </root>
    </mxGraphModel>
  </diagram>
</mxfile>
